<?xml version="1.0" encoding="utf-8"?>
<!-- Generator: Adobe Illustrator 24.3.0, SVG Export Plug-In . SVG Version: 6.00 Build 0)  -->
<svg version="1.1" id="Layer_1" xmlns="http://www.w3.org/2000/svg" xmlns:xlink="http://www.w3.org/1999/xlink" x="0px" y="0px"
	 viewBox="0 0 3500 3500" style="enable-background:new 0 0 3500 3500;" xml:space="preserve">
<style type="text/css">
	.st0{fill:#4A1C40;}
	.st1{fill:url(#SVGID_1_);}
	.st2{opacity:0.25;fill:#54254F;}
	.st3{fill:#54254F;}
	.st4{opacity:0.25;}
	.st5{fill:#96BE8C;}
	.st6{fill:#F68895;}
	.st7{fill:#33122D;}
	.st8{fill:#FAA339;}
	.st9{fill:url(#SVGID_2_);}
	.st10{fill:url(#SVGID_3_);}
	.st11{fill:#EF8F26;}
	.st12{fill:#FFFFFF;}
	.st13{fill:#F17785;}
	.st14{fill:#33132D;}
	.st15{fill:url(#SVGID_4_);}
	.st16{fill:#7C1240;}
	.st17{fill:url(#SVGID_5_);}
	.st18{fill:url(#SVGID_6_);}
	.st19{fill:url(#SVGID_7_);}
	.st20{fill:url(#SVGID_8_);}
	.st21{fill:url(#SVGID_9_);}
	.st22{fill:#FFBE71;}
	.st23{fill:#FF8D4D;}
	.st24{fill:#FF6161;}
	.st25{fill:#AD263D;}
	.st26{fill:#311E69;}
	.st27{fill:url(#SVGID_10_);}
	.st28{fill:#C4C4C4;}
	.st29{fill:#E0E0E0;}
	.st30{fill:#614CD4;}
	.st31{fill:#C1C1C1;}
	.st32{fill:#7C7C7C;}
	.st33{fill:url(#SVGID_11_);}
	.st34{fill:#1B1B26;}
	.st35{fill:#08080C;}
	.st36{fill:url(#SVGID_12_);}
	.st37{fill:url(#SVGID_13_);}
	.st38{fill:url(#SVGID_14_);}
	.st39{fill:url(#SVGID_15_);}
	.st40{fill:url(#SVGID_16_);}
	.st41{fill:#3B5A5E;}
	.st42{fill:#597378;}
	.st43{fill:#385559;}
</style>
<g>
	<g>
		<path class="st0" d="M2446.8,1589c21.3-21,60.8,0.9,67.1,30.1c6.3,29.3-8.3,58.5-21.8,85.2c-13.5,26.7-26.5,57.2-17.1,85.7
			c14.5,44.1,70.7,55.1,116.9,58.4c46.3,3.3,102.3,13.2,118.2,56.7c16.8,46-25,92.3-29.8,141.1c-4,41.1,19.7,81.2,52.1,106.9
			c32.4,25.6,72.6,39.2,112.3,50.7c90.5,26.1,187.9,43.6,278,16.2c90.1-27.4,168.7-111.8,161.2-205.6
			c-7.4-93.4-94.3-162.7-184.1-189.3c-89.8-26.6-185.5-22.4-278.2-36c-92.6-13.6-190.3-51.7-235.7-133.6
			c-22.7-40.9-30.1-89.1-54.1-129.3c-24-40.2-76.3-71.2-117.1-48.3C2424.8,1511.7,2436.7,1555,2446.8,1589z"/>
		
			<linearGradient id="SVGID_1_" gradientUnits="userSpaceOnUse" x1="2961.2834" y1="4081.9304" x2="875.7158" y2="2595.6655" gradientTransform="matrix(0 1 -1 0 4278.9336 -240.6344)">
			<stop  offset="0" style="stop-color:#4A1C40"/>
			<stop  offset="0.1316" style="stop-color:#4C1D42"/>
			<stop  offset="1" style="stop-color:#54254F"/>
		</linearGradient>
		<rect x="505.4" y="249.4" class="st1" width="1962" height="1323.8"/>
		<path class="st2" d="M2467.5,1573.2h-350.8C2360,1378,2337.3,249.4,2337.3,249.4h130.1V1573.2z"/>
		<path class="st2" d="M1837.2,1573.2h-350.8c243.3-195.2,220.6-1323.8,220.6-1323.8h130.1V1573.2z"/>
		<path class="st2" d="M1226.7,1573.2H875.9c243.3-195.2,220.6-1323.8,220.6-1323.8h130.1V1573.2z"/>
		<g>
			<path class="st3" d="M2465.5,1582.8v-1343c0-28.1-22.8-50.9-50.9-50.9l0,0c-28.1,0-50.9,22.8-50.9,50.9v1343
				c0,28.1,22.8,50.9,50.9,50.9l0,0C2442.7,1633.7,2465.5,1610.9,2465.5,1582.8z"/>
			<path class="st3" d="M1846.1,1582.8v-1343c0-28.1-22.8-50.9-50.9-50.9l0,0c-28.1,0-50.9,22.8-50.9,50.9v1343
				c0,28.1,22.8,50.9,50.9,50.9l0,0C1823.3,1633.7,1846.1,1610.9,1846.1,1582.8z"/>
			<path class="st3" d="M1226.7,1582.8v-1343c0-28.1-22.8-50.9-50.9-50.9l0,0c-28.1,0-50.9,22.8-50.9,50.9v1343
				c0,28.1,22.8,50.9,50.9,50.9l0,0C1203.9,1633.7,1226.7,1610.9,1226.7,1582.8z"/>
			<path class="st3" d="M607.3,1582.8v-1343c0-14.1-5.7-26.8-14.9-36c-9.2-9.2-21.9-14.9-36-14.9c-28.1,0-50.9,22.8-50.9,50.9v1343
				c0,14.1,5.7,26.8,14.9,36c9.2,9.2,21.9,14.9,36,14.9C584.5,1633.7,607.3,1610.9,607.3,1582.8z"/>
		</g>
		<g class="st4">
			<path class="st3" d="M2465.5,1582.8v-1343c0-28.1-22.8-50.9-50.9-50.9l0,0c-28.1,0-50.9,22.8-50.9,50.9v1343
				c0,28.1,22.8,50.9,50.9,50.9l0,0C2442.7,1633.7,2465.5,1610.9,2465.5,1582.8z"/>
			<path class="st3" d="M1846.1,1582.8v-1343c0-28.1-22.8-50.9-50.9-50.9l0,0c-28.1,0-50.9,22.8-50.9,50.9v1343
				c0,28.1,22.8,50.9,50.9,50.9l0,0C1823.3,1633.7,1846.1,1610.9,1846.1,1582.8z"/>
			<path class="st3" d="M1226.7,1582.8v-1343c0-28.1-22.8-50.9-50.9-50.9l0,0c-28.1,0-50.9,22.8-50.9,50.9v1343
				c0,28.1,22.8,50.9,50.9,50.9l0,0C1203.9,1633.7,1226.7,1610.9,1226.7,1582.8z"/>
			<path class="st3" d="M607.3,1582.8v-1343c0-14.1-5.7-26.8-14.9-36c-9.2-9.2-21.9-14.9-36-14.9c-28.1,0-50.9,22.8-50.9,50.9v1343
				c0,14.1,5.7,26.8,14.9,36c9.2,9.2,21.9,14.9,36,14.9C584.5,1633.7,607.3,1610.9,607.3,1582.8z"/>
		</g>
		<g>
			<path class="st5" d="M1556.3,927.8c0-23.2-9.1-44.2-25.6-59.1c-16.7-15.1-39.5-23.1-65.8-23.1c-52.3,0-88.7,32.9-88.7,79.9
				c0,22.9,8.5,43.5,24,58.2c16.5,15.7,39.9,23.9,67.7,23.9C1519.9,1007.7,1556.3,974.9,1556.3,927.8z M1414.9,926.7
				c0-25.6,26.1-37.3,50.4-37.3c24.1,0,52.2,9.8,52.2,37.5c0,25.6-26.3,37.3-50.7,37.3C1441,964.2,1414.9,952.6,1414.9,926.7z"/>
			<rect x="1378.6" y="1026.5" class="st5" width="175.2" height="42.4"/>
			<polygon class="st5" points="1417.8,1138.8 1553.8,1138.8 1553.8,1096.5 1378.6,1096.5 1378.6,1204 1417.8,1204 			"/>
			<path class="st5" d="M1426,702.9c1-1.3,2.2-2.7,3.8-4c1.6-1.3,3.5-2.4,5.7-3.4c4.4-1.8,9.1-2.6,12.5-3.1c3.4-0.5,5.7-0.9,5.8-1.8
				c0.1-0.9-2-2.1-5.8-2.7c-1.9-0.3-4.2-0.4-6.7-0.2c-2.6,0.2-5.4,0.8-8.3,2c-2.8,1.2-5.4,3-7.2,5c-1.9,2-3.1,4.2-3.7,6.1
				c-1.3,3.9-0.8,6.3,0,6.5C1422.9,707.5,1424,705.5,1426,702.9z"/>
			<path class="st5" d="M1556.3,712.6c0-49.8-40.3-90.1-90.1-90.1c-49.8,0-90.1,40.3-90.1,90.1c0,49.8,40.3,90.1,90.1,90.1
				C1516,802.7,1556.3,762.4,1556.3,712.6z M1438.7,743.3c-0.2,0-0.3,0-0.5-0.1c-34.4-5.6-34.4-55.7,0-61.3c0.2,0,0.3-0.1,0.5-0.1
				c16.9-2.5,33.5,5,48.5,13.2c10.4,5.7,21.5,14.4,32.7,17.5c-11.2,3.1-22.4,11.9-32.7,17.5C1472.3,738.3,1455.6,745.8,1438.7,743.3
				z"/>
		</g>
	</g>
	<g>
		<path class="st6" d="M2505.9,841.8c-8.4-3-18.7-15.7-20.8-24.4c-2.5-10.6-4.7-26.7-7-41.1c-1.1-6.9-10.6-7.7-13-1.2
			c-6,16.4-9.5,36.3-9.7,50.3c-0.1,8.9,1,18,4.8,26.1c3.8,8.1,10.4,15.1,18.9,17.9c8.5,2.8,18.7,0.7,24.4-6.2
			C2501.6,855.2,2507.8,849.7,2505.9,841.8z"/>
		<path class="st6" d="M2495.9,915.2c-8.4-2.9-11.6-13-13.7-21.7c-2.5-10.6-4.7-26.7-7-41.1c-1.1-6.9-10.6-7.7-13-1.2
			c-6,16.4-9.5,36.3-9.7,50.3c-0.1,8.9,1,18,4.7,26.1s10.4,15.1,18.9,17.9c8.5,2.8,18.7,0.7,24.4-6.2
			C2498.7,931.3,2497.8,923.1,2495.9,915.2z"/>
		<path class="st7" d="M3446.2,1631.6c-10.8,0.8-21.8-6.2-25.7-16.3c-3.1-8.1-2-17.3-4.7-25.6c-3.3-9.7-12.2-17.3-22.4-18.8
			c-1.8-0.3-3.6-0.4-5.4-0.3l-23.7-1.1c-2.3-14.4-4.7-28.9-7-43.1c21.7-3.3,41.9-8.7,61.9-17.8c21.2,9.4,34.1,32.3,37.1,55.3
			C3459.2,1586.9,3453.5,1609.6,3446.2,1631.6z"/>
		<path class="st7" d="M2870.4,1535.7c-5.6,29.8-4.1,60.9,4.3,90c-40.4,8.9-82.8,10.2-123.9,5c-5.2-6.2-3-16.8,2-23.1
			c5-6.3,12.8-9.8,20.5-12.1c7.7-2.4,15.7-3.9,23-7.5c16.6-8.2,26.9-27.5,24.4-45.9C2835,1534.7,2854.4,1533.2,2870.4,1535.7z"/>
		<path class="st0" d="M2990.1,1310.2c16.7,113.8,55.6,224.3,113.9,323.5c94.5-4.8,188.1-27.8,275.7-63.5
			c-5.9-16.1-10.3-32.6-16.2-48.7c-69.7,8.9-141,16.8-210.7,25.7c-27.9-88.3-36.5-183.6-31.4-276
			C3080.2,1296.8,3038.7,1308.2,2990.1,1310.2z"/>
		<path class="st8" d="M2491.7,880.1l312,225.6l51-59.8l-351.2-208.8C2494.8,849.5,2490.7,865,2491.7,880.1z"/>
		
			<linearGradient id="SVGID_2_" gradientUnits="userSpaceOnUse" x1="3532.7742" y1="1181.5245" x2="3877.1011" y2="1561.996" gradientTransform="matrix(-1 0 0 1 6569.542 0)">
			<stop  offset="0" style="stop-color:#4A1C40"/>
			<stop  offset="0.1047" style="stop-color:#4E2046"/>
			<stop  offset="0.3416" style="stop-color:#53244D"/>
			<stop  offset="1" style="stop-color:#54254F"/>
		</linearGradient>
		<path class="st9" d="M3128.7,1294.8c-3.6,27.6-24.8,50.3-49.6,62.9c-24.8,12.6-52.9,16.6-80.5,19.8c-64,7.3-122-2.9-186.1-9.4
			c0,0,42.5,107.9,70.3,178.9c-20,17.3-48.5,28.2-80.1,28.2c-0.9,0-1.7,0-2.6,0l0,0c0,0,0-0.1-0.1-0.1
			c-2.6-4.2-73.5-132.7-91.7-223.8c-7.4-37.2,17.5-73.1,54.8-79.3c2.6-0.4,5.2-0.8,7.8-1.2c2.2-0.3,4.4-0.6,6.6-0.9c0,0,0.1,0,0.1,0
			c21.4-2.3,58.6-1.3,93.3,0.5c36,1.9,69.2,4.6,79.3,5.4c6.3-0.7,12.5-1.8,18.4-3.5c38.9-11.2,82-18.5,117.1-38.9l8.9-5.3l13.8,15.3
			l5.2,5.7c7.8,8.7,13.2,19.4,14.8,31C3129.3,1284.9,3129.3,1289.9,3128.7,1294.8z"/>
		<path class="st6" d="M2682.6,1027c4.5,34.2,20.7,66.9,45.2,91.2c10.4,10.4,24.9,19.8,38.9,15.5c12.1-3.7,19.1-16.3,22.6-28.4
			c9.2-32.1,1.3-68.7-20.5-94c-6.2-0.5-11.9-0.5-18.1-1c-11.8-1-23.7-2-35.3,0.1C2703.9,1012.4,2689.4,1017.3,2682.6,1027z"/>
		<path class="st3" d="M2804.6,1056c-2-15.2-5.9-30.1-11.4-44.4c-2.9-7.6-7.2-15.7-15-18.1c-8.3-2.5-16.8,2.8-23.9,7.8
			c-13.7-17.1-37.9-26.2-59.6-22.9c-21.7,3.3-41.2,18.7-49.3,39.1c12.3,13.3,28,21.2,46,23.3s36.6-2.5,51.6-12.6
			c5.7,10.4,12.9,19.2,23.1,25.3c5.5,3.3,11.6,5.9,18,6.4S2799.7,1060.2,2804.6,1056z"/>
		
			<linearGradient id="SVGID_3_" gradientUnits="userSpaceOnUse" x1="3523.5884" y1="1225.113" x2="4111.415" y2="884.5923" gradientTransform="matrix(-1 0 0 1 6569.542 0)">
			<stop  offset="0" style="stop-color:#FAA339"/>
			<stop  offset="1" style="stop-color:#F9C33D"/>
		</linearGradient>
		<path class="st10" d="M2483.9,949.7l328.8,208.6c29.8,54.2,81.6,99.5,140.7,117.7c51-6.4,101.6-24.2,149.2-43.5
			c-8.7-10.4-17.3-20.8-26-31.3c-22.5-27.1-45-54.1-67.5-81.2c-27.8-33.5-58.1-68.6-99.8-81.1c-30.1-9-64.4-4.1-91.1,12.4
			l-330.7-152C2482.9,915.7,2481.7,932.9,2483.9,949.7z"/>
		<path class="st11" d="M3102.6,1232.5c-47.6,19.3-98.2,37.1-149.2,43.5c-59.1-18.2-110.9-63.5-140.7-117.7l37.7,21.7
			c6.1,31.9,31.2,57.5,62,67.7c30.8,10.2,65,6.4,95.3-5.3c25-9.7,47.7-24.6,69-41.2C3085.3,1211.7,3093.9,1222.1,3102.6,1232.5z"/>
		<g>
			<path class="st12" d="M2494.6,902c4.5,1.9,11.2,4.7,19.7,8.4c17.1,7.4,41.7,18.4,72,32c60.4,27.1,143.4,65,235.2,107.1l0,0l4-2.9
				c1.4-0.9,2.8-1.7,4.2-2.6l2.1-1.3l2.2-1.1c1.5-0.7,3-1.4,4.4-2.1c3.1-1.1,6.1-2.5,9.2-3.3c1.6-0.4,3.1-0.9,4.7-1.3l4.7-1
				c1.6-0.4,3.2-0.5,4.7-0.8c1.6-0.2,3.2-0.5,4.8-0.6c3.2-0.2,6.3-0.5,9.5-0.4c6.3-0.1,12.5,0.6,18.6,1.5c12.2,2,23.8,5.8,34.5,11
				c10.6,5.2,20.3,11.5,29.2,18.4c17.8,13.8,32.2,29.6,45,44.6c12.8,15.1,24.1,29.5,34.5,42.7c20.6,26.4,36.8,48.1,48,63.1
				c5.6,7.5,9.9,13.4,12.8,17.4c2.9,4,4.3,6.2,4.1,6.3c-0.2,0.1-1.9-1.8-5.1-5.5c-3.2-3.8-7.8-9.4-13.7-16.7
				c-11.8-14.7-28.7-35.8-49.6-61.8c-10.5-13-22.1-27.2-34.9-42c-12.9-14.7-27.2-30.1-44.6-43.4c-8.7-6.6-18.1-12.6-28.3-17.6
				c-10.2-4.8-21.3-8.4-32.9-10.3c-5.8-0.8-11.7-1.5-17.6-1.3c-3-0.1-5.9,0.2-8.9,0.4c-1.5,0.1-3,0.4-4.5,0.6
				c-1.5,0.2-3,0.4-4.4,0.7l-4.4,0.9c-1.5,0.3-2.9,0.8-4.3,1.2c-2.9,0.7-5.7,2-8.5,3c-1.4,0.6-2.7,1.3-4.1,2l-2.1,1l-2,1.2
				c-1.3,0.8-2.6,1.5-3.9,2.4l-3.7,2.7l-1.5,1.1l-1.6,1.2l-1.7-0.8c-92.4-42.5-175.9-81.3-236.1-109.6
				c-30.1-14.2-54.4-25.7-71.2-33.9c-8.4-4.1-14.9-7.3-19.2-9.5c-4.4-2.2-6.6-3.5-6.5-3.7C2487.6,899.2,2490,900.1,2494.6,902z"/>
			<path class="st12" d="M2712.1,1309.1c3.5-7.4,9.2-15.1,17.2-21.7c7.9-6.6,18-12.2,29.5-15.9c11.5-3.8,24.3-5.8,37.8-6.3
				c13.5-0.6,27.5,0.3,41.9,1.2c14.4,0.9,29.4,2.2,44.6,3.5c15.2,1.3,30.1,2.3,44.4,2.7c14.3,0.4,28.1,0.1,41.2-1
				c26.2-2.3,49.4-7.9,68.4-13.8c9.5-2.9,18-6.1,25.3-9c7.4-2.9,13.6-5.7,18.7-8c10.1-4.7,15.7-7.6,15.9-7.1
				c0.2,0.3-4.9,3.9-14.8,9.3c-5,2.6-11.1,5.8-18.4,9.1c-7.3,3.3-15.8,6.7-25.3,10c-19.1,6.5-42.5,12.6-69.2,15.3
				c-13.3,1.3-27.4,1.7-41.9,1.4c-14.5-0.3-29.5-1.3-44.8-2.6c-15.3-1.3-30.1-2.6-44.5-3.6c-14.4-1-28.2-2-41.3-1.6
				c-13.1,0.3-25.4,2.1-36.4,5.5c-11,3.3-20.6,8.4-28.3,14.4c-7.7,6-13.2,13-16.8,19.9c-3.7,6.8-5.6,13.3-6.4,18.7
				c-0.8,5.4-0.7,9.7-0.5,12.6c0.2,2.9,0.4,4.5,0.2,4.5c-0.2,0-0.8-1.4-1.5-4.3c-0.6-2.9-1.2-7.4-0.7-13.1
				C2706.8,1323.4,2708.5,1316.5,2712.1,1309.1z"/>
			<path class="st12" d="M3120.1,1319.9c0.4,0,0.6,6.2,1.1,17.4c0.5,11.2,1.4,27.3,3.3,47.2c3.8,39.7,12,94.5,28.9,153
				c0.6,2.1,1.2,4.1,1.7,6.2c57.5-7,109.2-12.9,146.7-16.9c19.1-2,34.4-3.6,45.1-4.5c10.6-0.9,16.5-1.2,16.6-0.8
				c0.1,0.4-5.7,1.5-16.3,3.2c-10.6,1.7-25.9,3.9-44.9,6.5c-38,5.2-90.6,12-149.2,19.2l-2.7,0.3l-0.7-2.6c-0.8-2.9-1.7-5.8-2.5-8.8
				c-17.1-59-24.6-114.4-27.3-154.4c-1.4-20-1.6-36.3-1.3-47.5C3118.9,1326.1,3119.6,1319.9,3120.1,1319.9z"/>
		</g>
	</g>
	<g>
		<path class="st6" d="M2317.2,801.6c-0.4,3.5-7.4,6.2-20,8.3c-12.5,2.1-30.5,3.5-52.7,4.4c-44.3,1.6-105.1,0.8-171.3-3.3
			c-0.1,0-0.2,0-0.3,0c-2.7-0.2-5.4-0.5-8-0.8c-20.3-2.8-39.5-11.4-55.2-24.7c-6.9-5.9-13.5-11.3-17.1-14.3
			c-10.3-8.4-20.3-16.2-29.7-23.8c-9.4-7.6-18.4-14.7-26.6-21.6c-8.3-6.8-15.8-13.5-22.6-19.8c-3.4-3.2-6.6-6.3-9.6-9.3
			c-3-3-5.7-6.1-8.3-9c-2.5-2.9-4.8-5.8-6.9-8.6c-2-2.8-3.8-5.5-5.4-8.2c-3-5.4-5-10.3-5.8-15c-0.7-4.6-0.3-8.9,1.6-12.6
			c1.8-3.7,4.9-6.6,9.2-8.6c4.3-2,9.8-3.3,16.2-3.5c3.2-0.1,6.7,0,10.4,0.4c3.7,0.4,7.6,1.1,11.8,1.9c4.2,0.9,8.5,2.1,13,3.6
			c4.5,1.4,9.2,3.2,14,5.2c9.7,4,19.8,9.3,30.3,15.7c10.4,6.5,21.3,13.9,32.1,22.7c6.9,5.6,13.8,11.5,20.6,17.9
			c3.9,3.7,7.8,7.5,11.7,11.5c8,8.2,15.8,16.9,23.4,26.2c3,0.4,6,0.9,9,1.4c33.2,5.1,64.6,11.3,92.9,17.6
			c28.4,6.2,53.8,12.5,75.1,18.3c21.3,5.8,38.4,11.1,50.2,15.8C2311.2,794,2317.6,798.1,2317.2,801.6z"/>
		<path class="st13" d="M2065,810.2c-20.3-2.8-39.5-11.4-55.2-24.7c-6.9-5.9-13.5-11.3-17.1-14.3c-10.3-8.4-20.3-16.2-29.7-23.8
			c-9.4-7.6-18.4-14.7-26.6-21.6c-8.3-6.8-15.8-13.5-22.6-19.8c-3.4-3.2-6.6-6.3-9.6-9.3c-3-3-5.7-6.1-8.3-9
			c-2.5-2.9-4.8-5.8-6.9-8.6c-2-2.8-3.8-5.5-5.4-8.2c-3-5.4-5-10.3-5.8-15c-0.7-4.6-0.3-8.9,1.6-12.6c1.8-3.7,4.9-6.6,9.2-8.6
			c4.3-2,9.8-3.3,16.2-3.5c3.2-0.1,6.7,0,10.4,0.4c3.7,0.4,7.6,1.1,11.8,1.9c4.2,0.9,8.5,2.1,13,3.6c4.5,1.4,9.2,3.2,14,5.2
			c9.7,4,19.8,9.3,30.3,15.7c10.4,6.5,21.3,13.9,32.1,22.7c6.9,5.6,13.8,11.5,20.6,17.9c-9.8,22.8-10.3,49.5-1.1,72.6
			C2041.9,786.4,2052.2,799.9,2065,810.2z"/>
		<path class="st14" d="M1993.5,1551.8c13.5,21.7,20.3,47.5,19.2,73c-25.7,2.1-51.8,2.7-77.5,0.2c-3.2-12,2.1-24.3,6.5-35.9
			c4.4-11.6,9.1-23.9,6.7-36.1C1963,1552.1,1978.9,1551.2,1993.5,1551.8z"/>
		<path class="st14" d="M1685.2,1551.6c-13.7,21.5-20.7,47.3-19.8,72.8c25.7,2.3,51.7,3.2,77.4,0.8c3.3-12-1.9-24.4-6.2-36
			c-4.3-11.6-8.9-24-6.3-36.2C1715.7,1552.2,1699.8,1551.1,1685.2,1551.6z"/>
		<linearGradient id="SVGID_4_" gradientUnits="userSpaceOnUse" x1="1704.4326" y1="919.9621" x2="1941.2566" y2="1722.1082">
			<stop  offset="0" style="stop-color:#7C1240"/>
			<stop  offset="0.2538" style="stop-color:#901E4C"/>
			<stop  offset="0.7362" style="stop-color:#B1325F"/>
			<stop  offset="1" style="stop-color:#BE3966"/>
		</linearGradient>
		<path class="st15" d="M2007.6,1558.3l-60.1,0c-5.8,0-10.6-4.4-11.1-10.2c-22.5-259.8-97.4-491.1-97.4-491.1
			s-74.9,231.2-97.4,491.1c-0.5,5.8-5.3,10.2-11.1,10.2l-62,0c-6.4,0-11.5-5.3-11.1-11.7c3-54.5,29.3-290.8,67.3-535.4
			c2.7-17.4,5.5-34.9,8.5-52.4c0.7-3.9,1.3-7.8,2-11.7c2-11.3,3.9-22.6,6-33.9c34.3,7.6,58.9,11.7,96.8,11.7
			c37.9,0,62.6-4.1,96.8-11.7c2.1,11.3,4.1,22.6,6,33.9c3.7,21.3,7.2,42.7,10.5,64.1c1.7,11,3.4,21.9,5,32.8v0
			c35.2,232.5,59.4,450.4,62.2,502.5C2019.1,1553,2014,1558.3,2007.6,1558.3z"/>
		<path class="st16" d="M1956.5,1044c-27.7-87.5-223.2-85.2-223.2-85.2c0.7-3.9,1.3-7.8,2-11.7c2-11.3,3.9-22.6,6-33.9
			c34.3,7.6,58.9,11.7,96.8,11.7c37.9,0,62.6-4.1,96.8-11.7c2.1,11.3,4.1,22.6,6,33.9c3.7,21.3,7.2,42.7,10.5,64.1
			C1953.2,1022.2,1954.9,1033.1,1956.5,1044z"/>
		<g>
			<path class="st6" d="M1799.5,658.4c-1.5,3.4-4.7,5.9-9.4,7.6c-2.4,0.8-5.1,1.4-8.3,1.7c-3.2,0.3-6.7,0.4-10.5,0.2
				c-3.8-0.3-8-0.7-12.5-1.5c-4.5-0.8-9.2-2-14.3-3.4c-5.1-1.3-10.4-3.2-15.9-5.3c-5.6-2-11.3-4.6-17.3-7.4
				c-11.9-5.6-24.4-12.8-37.4-21.3c-12.8-8.8-26.1-18.7-38.9-30.4c-1.6-1.5-3.3-2.9-4.9-4.4c-1.6-1.5-3.2-3.1-4.8-4.6
				c-3.2-3.1-6.5-6.2-9.6-9.5c-3.1-3.3-6.3-6.7-9.4-10.1c-3.2-3.4-6.1-7.1-9.3-10.6c-12.2-14.5-24-30.3-34.5-47.4l-2-3.2l-2.2-3.7
				c-1.4-2.5-2.9-4.9-4.2-7.4c-1.3-2.5-2.6-5-3.8-7.5c-1.1-2.5-2.3-5-3.4-7.6c-4.2-10.1-7.5-20.3-9.9-30.3
				c-2.5-10-4.1-19.7-5.2-29.2c-0.2-1.5-0.3-3-0.5-4.5c-0.8-7.9-1.2-15.5-1.3-22.9c-0.3-17.6,1-33.9,2.5-48.8
				c1.7-14.9,3.8-28.5,6-40.8c1.8-9.7,3.5-18.7,5.2-26.8h28.1c0.9,8.6,1.8,18,2.8,28.3c1.2,12.1,2.5,25.2,4.3,39
				c1.9,13.8,4.1,28.2,7.5,42.7c1.6,7.2,3.6,14.4,5.9,21.5c0.8,2.6,1.7,5.2,2.6,7.7c1.6,4.4,3.3,8.8,5.2,13.1
				c3,6.7,6.4,13.2,10.1,19.4c1,1.5,2,3,2.9,4.5c1,1.5,2.1,2.9,3.1,4.4c1,1.5,2.2,2.9,3.3,4.3l1.6,2.1l2,2.5
				c10.8,13.4,22.1,25.8,33.2,37.6c2.8,2.9,5.5,5.9,8.3,8.7c2.8,2.8,5.6,5.6,8.3,8.4c2.7,2.8,5.6,5.3,8.3,8c1.4,1.3,2.7,2.7,4.1,4
				c1.4,1.3,2.8,2.5,4.1,3.8c10.7,10.3,21.4,19.5,31.2,28.4c10.1,8.8,19.5,17,28.1,24.4c4.3,3.8,8.5,7.5,12.4,10.9
				c3.9,3.5,7.5,7,11,10.1c3.4,3.2,6.6,6.4,9.5,9.4c2.9,3,5.5,5.8,7.8,8.6c2.3,2.8,4.2,5.4,5.9,8c1.6,2.5,2.9,4.9,3.8,7.2
				C1800.7,650.9,1801,655,1799.5,658.4z"/>
		</g>
		<path class="st13" d="M1556.3,501.8c0.6,1.1,1.2,2.1,1.8,3.1l2.2,3.7l2,3.2c10.6,17.1,22.4,32.8,34.5,47.4
			c3.1,3.6,6.1,7.2,9.2,10.7c3.2,3.4,6.3,6.8,9.4,10.1c3.2,3.3,6.4,6.4,9.6,9.5c1.6,1.6,3.2,3.1,4.8,4.6c1.6,1.5,3.3,2.9,4.9,4.4
			c12.9,11.8,26.2,21.7,38.9,30.4c12.9,8.5,25.4,15.7,37.4,21.3c5.9,2.8,11.7,5.4,17.3,7.4c5.6,2.1,10.8,4,15.9,5.3
			c5.1,1.4,9.8,2.6,14.3,3.4c4.5,0.7,8.7,1.2,12.5,1.5c3.8,0.3,7.3,0.2,10.5-0.2c3.1-0.3,5.9-0.9,8.3-1.7c4.8-1.6,7.9-4.2,9.4-7.6
			c1.5-3.4,1.2-7.5-0.6-12.1c-0.9-2.3-2.2-4.7-3.8-7.2c-1.6-2.5-3.6-5.1-5.9-8c-2.3-2.8-4.9-5.7-7.8-8.6c-2.9-3-6-6.2-9.4-9.4
			c-3.5-3.1-7.1-6.7-11-10.2c-3.9-3.4-8-7.1-12.4-10.9c-8.6-7.5-18-15.7-28.1-24.4c-9.9-8.9-20.6-18.1-31.2-28.4
			c-1.4-1.3-2.7-2.5-4.1-3.8c-1.3-1.3-2.7-2.6-4-4c-1.2-1.2-2.5-2.4-3.7-3.6c-30.8,9-65,6.2-93.8-7.9
			C1573.8,515,1564.6,508.9,1556.3,501.8z"/>
		<path class="st6" d="M1891,523.3c0-1.9,2.1-3.3,4-3c1.9,0.3,3.3,2,3.9,3.8c0.6,1.8,0.6,3.7,0.5,5.6c-0.2,5.8-0.7,11.7-3.2,16.9
			c-2.5,5.2-7.4,9.6-13.2,10C1887.6,545.8,1891.1,535.1,1891,523.3z"/>
		<path class="st6" d="M1783.9,523.3c0-1.9-2.1-3.3-4-3c-1.9,0.3-3.3,2-3.9,3.8c-0.6,1.8-0.6,3.7-0.5,5.6c0.2,5.8,0.7,11.7,3.2,16.9
			c2.5,5.2,7.4,9.6,13.2,10C1787.2,545.8,1783.8,535.1,1783.9,523.3z"/>
		<path class="st6" d="M1865.6,604c0.3,4.9,0.9,20.9,1.7,25.8c-9.3,3.2-19.4,5-30.1,5c-10.7,0-20.8-1.9-30.1-5.2
			c1.8-10.2,2.6-31.6,2.2-41.9c-0.2-7.2-0.9-14.4-2.2-21.5c10.1,2,20.1,3.4,30.2,4.9c10.1-1.5,20.1-2.8,30.2-4.7
			C1865.4,578.8,1864.7,591.4,1865.6,604z"/>
		<linearGradient id="SVGID_5_" gradientUnits="userSpaceOnUse" x1="1883.1372" y1="607.6774" x2="1794.0098" y2="449.7944">
			<stop  offset="0" style="stop-color:#7C1240"/>
			<stop  offset="0.2538" style="stop-color:#901E4C"/>
			<stop  offset="0.7362" style="stop-color:#B1325F"/>
			<stop  offset="1" style="stop-color:#BE3966"/>
		</linearGradient>
		<path class="st17" d="M1892.8,523.9c0,39-24.9,78-55.6,78c-30.7,0-55.6-38.9-55.6-78s24.9-63.4,55.6-63.4
			C1867.9,460.5,1892.8,484.8,1892.8,523.9z"/>
		<path class="st6" d="M1610.8,284.2c-13.4,7.1-28.9,13.2-37.9,16.1c-7,2.2-13.8,3.5-20.7,5.8c-15-7.7-20.5-26.3-22.1-43.1
			c-0.4-4.5-0.7-9.1-0.5-13.6c28.3-47.1,51.2,0.1,51.2,0.1l0,0c-0.6,1.2-1.2,2.4-1.7,3.6c-2.3,5.2-3.7,11.2-1.5,16.4
			c2.6,6,9.7,9.2,16.2,9.1c2.5,0,7.8-1.1,13.8-2.6C1612.6,274.6,1615.4,281.7,1610.8,284.2z"/>
		<linearGradient id="SVGID_6_" gradientUnits="userSpaceOnUse" x1="1625.8942" y1="743.1229" x2="2028.1057" y2="743.1229">
			<stop  offset="0" style="stop-color:#1E769A"/>
			<stop  offset="1" style="stop-color:#2698A2"/>
		</linearGradient>
		<path class="st18" d="M1984.6,764.7c0,0-30.9-6.5-36.3,14c-1.9,30.3-3.6,85.1,0.1,167.5c-35.6,5.2-72.9,8-111.5,8
			c-37.8,0-74.4-2.7-109.3-7.7c4.7-130.9-4.4-196-4.4-196c-6.1-35-19.3-63.6-34.2-86c-28.7-43.4-63.2-63.8-63.2-63.8
			c3.7-56.3,63.3-68.4,63.3-68.4c47.5,52.5,109,91.1,110,91.7c0.1,0,0.2,0.1,0.3,0.1c1.1,0.3,2.1,0.6,3,0.9c1.1,0.4,2.1,0.7,2.9,0.9
			c0.5,0.1,0.9,0.3,1.2,0.4c2.5-0.4,4.9-0.7,7.4-1c2.5-0.3,5-0.6,7.5-0.8c5.1-0.5,10.2-0.7,15.4-0.9c0.4,0,0.8,0,1.1,0
			c0.4,0,0.8,0,1.2,0c3.6,0.1,7.3,0.3,10.9,0.5c3.3,0.2,6.5,0.5,9.8,0.9c2.4,0.3,4.8,0.6,7.2,0.9v0c0,0,0,0,0.1,0
			c0.6-0.1,2.9-0.4,6.7-0.7c17.6-1.3,66.4-1.2,115.8,32.2c12.4,8.3,24.7,18.8,36.7,31.8C2026.3,688.9,2041.4,732.2,1984.6,764.7z"/>
		<path class="st6" d="M1873.8,625c-8.7,11-22,18-36.9,18c-15.4,0-29-7.5-37.8-19.1c0.1,0,0.2,0.1,0.3,0.1c1.1,0.3,2.1,0.6,3,0.9
			c1.1,0.4,2.1,0.7,2.9,0.9c0.5,0.2,0.9,0.3,1.2,0.4c2.4-0.4,4.9-0.7,7.4-1c2.5-0.3,5-0.6,7.5-0.8c5.1-0.5,10.2-0.7,15.4-0.9
			c0.4,0,0.8,0,1.2,0c0.4,0,0.8,0,1.1,0c3.6,0.1,7.3,0.3,10.9,0.5c3.3,0.2,6.5,0.5,9.8,0.9c2.4,0.3,4.8,0.6,7.2,0.9v0c0,0,0,0,0.1,0
			C1867.7,625.6,1870,625.2,1873.8,625z"/>
		<path class="st6" d="M2287.6,774.8c5.5-3.7,11.3-8.9,17.1-13.7c3-2.5,7.4,0.5,6.1,4.2c-2.3,6.5-4.6,13.2-6.7,18.6
			c12,0.4,24,0.9,36,1.3c3.2,0.1,6.5,0.3,9.2,1.9c3.8,2.4,5.4,7.3,4.8,11.8c-0.7,4.4-3.3,8.4-6.3,11.7c-11,12-29,17.1-44.7,12.7
			c-12.6-3.5-31.3-17.6-30.8-32.5C2272.4,782.9,2281.8,778.8,2287.6,774.8z"/>
	</g>
	<g>
		<polygon class="st13" points="423.4,609.3 505.4,567.3 505.4,627.5 452.7,659.2 		"/>
		<path class="st14" d="M104.4,1612c11.1,14.4,33.1,18.9,49.1,10.1c-10.5-20.8-15.3-44.5-13.8-67.7c0.3-4.2,0.8-8.3,1.4-12.4
			c0.1-0.4,0.1-0.7,0.2-1.1c-0.8-1.2-1.7-2.3-2.5-3.5c-1-1.4-1.9-2.7-2.9-4.1c-3.2-4.4-6.3-8.9-9.5-13.4c-1.8,2.3-3.7,4.6-5.5,7
			c-2.2,2.9-4.4,5.8-6.5,8.7c-6.1,8.6-11.6,17.6-15.1,27.6C93.6,1579.3,93.9,1598.5,104.4,1612z"/>
		<path class="st14" d="M414.5,1619.9c29.7,8.2,58.2,8.4,88.6,3.3c-1-5.5-4.1-10.1-8.2-14c-2.9-2.8-6.4-5.2-9.8-7.1
			c-8.4-4.7-17.6-7.9-25.1-13.8c-7.5-5.9-13.1-15.7-10.4-24.9c-10.9-0.1-14.3-9.7-24.8-6.7c-2.1,5.1-4,11.1-5.7,17.6
			C415.3,1589.7,413,1607.2,414.5,1619.9z"/>
		<path class="st6" d="M419.1,1574.5c19.8,20.3,47.4,32.9,75.8,34.8c-2.9-2.8-6.4-5.2-9.8-7.1c-8.4-4.7-17.6-7.9-25.1-13.8
			c-7.5-5.9-13.1-15.7-10.4-24.9c-10.9-0.1-14.3-9.7-24.8-6.7C422.7,1561.9,420.8,1568,419.1,1574.5z"/>
		<path class="st6" d="M114.3,1535.6c0.2,5.7,2.7,11.4,7.1,15c5,4.2,12.1,5.5,18.3,3.8c0.3-4.2,0.8-8.3,1.4-12.4
			c-0.7-1.6-1.5-3.1-2.3-4.6c-0.9-1.5-1.8-2.8-2.9-4.1c-1.1-1.3-2.4-2.4-3.7-3.3c-3.3-2.2-7.3-3.3-11.3-3
			C118.6,1529.8,116.4,1532.7,114.3,1535.6z"/>
		<path class="st6" d="M115.1,1534.6c14.3,5.3,10.7,12.4,25.1,17.7c52.7-76.3,97.9-159.8,134.6-246.8c2.5-6,5-12,7.4-18
			c34.6-85.3,61.1-173.8,78.4-262.2c20.3,76.7,37,160.9,48.1,246.3c2.3,17.8,4.4,35.7,6.2,53.6c8.5,84.5,10.9,168.8,5.2,246.9
			c12.7,1.1,16.2-1.9,28.9-0.8c20.8-86.3,33.2-173.5,36.2-260.6c0.8-22.5,0.9-45,0.4-67.5c-2.3-107.4-19.4-214.3-53.1-318.6
			l-0.1-0.2l-16.5-53.9l-5-16.2l-52.5-1.2l-24.8-0.6l-15.7-0.4l-25,45c-4.8,7.9-9,16.2-12.6,24.7c-15.1,35.9-9.6,74.9-15.2,113.5
			c-0.3,2.1-0.6,4.2-0.9,6.3c-11.6,78.9-28.5,151.6-49.7,222.7c-1.7,5.5-3.3,11.1-5,16.6C183.5,1364.9,151.5,1447.1,115.1,1534.6z"
			/>
		<path class="st13" d="M209.5,1280.7c24,4.2,48.3,6.4,72.7,6.8c34.6-85.3,61.1-173.8,78.4-262.2c20.3,76.7,37,160.9,48.1,246.3
			c26.4-7.1,52.2-16.6,76.9-28.4c-2.3-107.4-19.4-214.3-53.1-318.6l-0.1-0.2l-16.5-53.9l-5-16.2l-52.5-1.2l-24.8-0.6l-15.7-0.4
			l-25,45c-4.8,7.9-9,16.2-12.6,24.7c-15.1,35.9-9.6,74.9-15.2,113.5c-0.3,2.1-0.6,4.2-0.9,6.3c-11.6,78.9-28.5,151.6-49.7,222.7
			C212.9,1269.7,211.2,1275.2,209.5,1280.7z"/>
		<path class="st6" d="M671,502.6c-0.7,3-1.5,6.2-2.3,9.4c-1.3,4.8-2.7,9.8-4.2,15.1c-1.5,5.2-3.3,10.5-5.1,16
			c-1.8,5.5-3.9,11-6,16.8c-4.4,11.4-9.2,23.2-14.9,35.3c-2.8,6-5.8,12.1-9,18.2c-1.6,3.1-3.3,6.2-4.9,9.3c-1.8,3.2-3.4,6.1-5.6,9.6
			l-2.1,3.4l-6.7,4.8l-0.9,0.6c-7.4,5.4-14.8,10.5-22.2,15.3c-4.1,2.7-8.2,5.2-12.3,7.7c-1.5,0.9-3,1.8-4.4,2.7
			c-9.9,5.9-19.9,11.2-29.5,15.9c-11.1,5.4-21.9,9.9-32.2,13.6c-10.3,3.7-20.1,6.6-29.3,8.6c-9.2,2.1-17.6,3.3-25.2,3.7
			c-2.6,0.2-5.1,0.2-7.5,0.2c-4.6,0-8.7-0.4-12.4-1c-5.7-0.9-10.3-2.6-13.7-4.8c-3.4-2.1-5.6-4.9-6.5-8.1c-0.9-3.2-0.5-6.7,1.2-10.3
			c1.7-3.7,4.5-7.4,8.5-11.4c2.9-2.8,6.3-5.7,10.3-8.6c1.5-1.1,3-2.2,4.6-3.3c5.9-4,12.8-8,20.5-12.1c7.7-4.1,16.2-8.3,25.4-12.4
			c1.1-0.5,2.3-1.1,3.5-1.6c2.1-1,4.3-2,6.6-3c6.2-2.8,12.7-5.5,19.5-8.4c10.5-4.5,21.5-9.1,32.9-13.9c10.4-4.4,21.2-9,32.2-13.7
			c0.3-0.4,0.5-0.7,0.7-1.1c1.8-2.7,3.6-5.2,5.4-7.9c3.5-5.3,7-10.5,10.4-15.7c6.8-10.4,13-20.6,19-30.4c2.9-4.9,5.8-9.7,8.5-14.4
			c2.6-4.7,5.4-9.3,7.9-13.8c2.5-4.5,4.9-8.8,7.2-13c2.2-4.2,4.4-8.2,6.5-12.1c1.7-3.1,3.2-6.1,4.7-9L671,502.6z"/>
		<path class="st13" d="M570.4,666.8c-9.9,5.9-19.9,11.2-29.5,15.9c-11.1,5.4-21.9,9.9-32.2,13.6c-10.3,3.7-20.1,6.6-29.3,8.6
			c-9.2,2.1-17.6,3.3-25.2,3.7c-2.6,0.2-5.1,0.2-7.5,0.2c-1.1-5-2.5-9.9-4.3-14.7c-3.6-9.6-8.7-19.3-8.4-29.5c1.5-1.1,3-2.2,4.6-3.3
			c5.9-4,12.8-8,20.5-12.1c7.7-4.1,16.2-8.3,25.4-12.4c1.1-0.5,2.3-1.1,3.5-1.6c7,12.5,19.1,22,32.6,27.1
			c15.4,5.9,32.3,6.6,48.6,4.6C569.6,666.9,570,666.9,570.4,666.8z"/>
		<linearGradient id="SVGID_7_" gradientUnits="userSpaceOnUse" x1="355.5427" y1="884.1022" x2="317.1308" y2="606.3536">
			<stop  offset="0" style="stop-color:#FAA339"/>
			<stop  offset="1" style="stop-color:#F9C33D"/>
		</linearGradient>
		<path class="st19" d="M226.9,1211.2c44.3,23.9,94.6,37.5,147.8,37.5c43.3,0,84.6-8.9,122.4-25.2c-3.8-107.1-28.9-213-49.8-284.1
			c-15.7-53.5-28.9-87.3-28.9-87.3c0.4-0.9,0.8-1.8,1.1-2.8c11-27.8,17.4-56.2,22.4-85.5c1.4-7.9,3.4-38.4,4.6-46.5l0.1,0l41.4-12.6
			l15.9-4.8c0,0-4.6-43.9-25.3-60.4L441,628.5l0,0c-2.7-1.2-5.5-1.8-8.2-1.6c-14.3-0.9-25.7-1.4-30.9-1.6c-2-0.1-3.1-0.1-3.1-0.1
			c-13.3,1.6-27.4,0.3-41.1,0.3c-1.9,0-3.7,0-5.6,0c-2.6,0-5.2,0.2-7.7,0.4c0,0,0,0-0.1,0c-8.9,1.5-17.1,5.7-24.5,11.4h0
			c-48.1,42.7-26.5,77.3-10.9,93.1c7.2,7.3,11.8,16.9,12.4,27.2c0,0.4,0,0.8,0.1,1.1c1.6,29.6-0.1,59.6-4.2,88.8
			c-30.3,34.3-51.1,76.8-59.5,121.8c-5,26.9-5.6,54.4-6.3,81.8c-0.4,15.4-0.8,30.7-2,46C246.3,1135.9,239.5,1174.5,226.9,1211.2z"/>
		<path class="st11" d="M251.4,1051c67.4,4.1,136.9-25.3,177.8-79c7.6-9.9,13.7-21,18.2-32.6c-15.7-53.5-28.9-87.3-28.9-87.3
			c0.4-0.9,0.8-1.8,1.1-2.8c-11.7,1.6-23.5,2.2-35.1,0.6c-19.5-2.7-39.1-13.1-47.6-30.9c-5.6-11.6-5.9-24.9-5.8-37.8
			c0.1-12.6,0.8-26,8.2-36.1c8.9-12.1,24.8-16.2,39.1-21c27.3-9.1,52.7-23.7,74.4-42.6c-11.5,1.1-20.8-8.9-28.1-17.8
			c-7.3-8.9-11.8-19.7-17.4-29.7c-1.7-3-3.5-6-5.3-8.9c-2-0.1-3.1-0.1-3.1-0.1c-13.3,1.6-27.4,0.3-41.1,0.3c-1.9,0-3.7,0-5.6,0
			c-2.6,0-5.2,0.2-7.7,0.4c0,0,0,0-0.1,0c-8.9,1.5-17.1,5.7-24.5,11.4h0c-48.1,42.7-26.5,77.3-10.9,93.1
			c7.2,7.3,11.8,16.9,12.4,27.2c0,0.4,0,0.8,0.1,1.1c1.6,29.6-0.1,59.6-4.2,88.8c-30.3,34.3-51.1,76.8-59.5,121.8
			C252.7,996.1,252.1,1023.5,251.4,1051z"/>
		<linearGradient id="SVGID_8_" gradientUnits="userSpaceOnUse" x1="313.1918" y1="847.3325" x2="378.1966" y2="1317.1398">
			<stop  offset="0" style="stop-color:#4A1C40"/>
			<stop  offset="0.1047" style="stop-color:#4E2046"/>
			<stop  offset="0.3416" style="stop-color:#53244D"/>
			<stop  offset="1" style="stop-color:#54254F"/>
		</linearGradient>
		<path class="st20" d="M226.9,1211.2c44.3,23.9,94.6,37.5,147.8,37.5c43.3,0,84.6-8.9,122.4-25.2c-6.7-187.5-78.7-371.4-78.7-371.4
			s-59.2,16-101.3-4.7c-30.3,34.3-51.1,76.8-59.5,121.8c-7.8,42-4.8,85.2-8.3,127.8C246.3,1135.9,239.5,1174.5,226.9,1211.2z"/>
		<linearGradient id="SVGID_9_" gradientUnits="userSpaceOnUse" x1="415.8646" y1="748.1375" x2="293.7286" y2="484.1655">
			<stop  offset="0" style="stop-color:#4A1C40"/>
			<stop  offset="0.3533" style="stop-color:#4F2047"/>
			<stop  offset="1" style="stop-color:#54254F"/>
		</linearGradient>
		<path class="st21" d="M434.4,535.1c-2.2,10.8-7.9,20.7-9,31.7c-3.4,34.6,39.3,59.9,38.4,94.7c-0.5,20.4-16.9,37.7-35.7,45.6
			c-18.8,7.9-39.8,8.4-60.2,8.7c-19.3,0.3-38.9,0.6-57.8-3.4c-18.9-4-37.4-12.9-49.6-27.9c-12.2-15-16.8-36.9-8.3-54.3
			c9.3-19,31.3-28.8,42.2-47c12.2-20.4,7.8-46.8,16.5-69c6.4-16.2,19.9-29.3,36.2-35.2C385.3,465.1,444.2,485.8,434.4,535.1z"/>
		<path class="st6" d="M651.7,496.6c-6.5-11.2-12.6-30.7-14-46.8c-0.3-3.4,4.4-4.5,5.7-1.4c2.7,6.3,5.5,13,7,16.2l28.6-30.2
			c5.1-5.4,14.4-3.3,16.6,4c3.7,11.9,3.6,25-0.6,36.5c-6,16.5-20.1,29.6-36.9,34.1C655.2,505.5,654.1,500.6,651.7,496.6z"/>
	</g>
</g>
<path class="st5" d="M1682.1,3000.9c-35.9,12-101.9,34.2-180.5,31.9c-173.8-5.2-244.1-125.4-302.6-90.2c-47,28.2-57,139-10.6,185.8
	c71.9,72.5,258.4-29.2,286.7,21.2c19.8,35.4-69.2,90.2-53.1,148.6c23.5,85.4,255.7,120,292,58.4c28.5-48.5-83.3-124.4-53.1-196.4
	c31.4-75,194.8-93,217.7-53.1c18.6,32.5-65.5,86.6-47.8,132.7c17.9,46.6,120.8,35.6,276.1,42.5c303.2,13.4,372,75.7,472.5,10.6
	c67.9-44,125.2-130.1,106.2-191.1c-24.5-78.9-124-72.2-123.8-115.2c0.2-39.4,128.9-51.1,249.6-55.2c153.8-5.1,200.1,63.6,317.9,71.2
	c142.7,9.3,216.4-44,196.9-148.4c-10.7-57.5-165.9-97.2-295.5-76.3c-221.4,35.7-272,3-1045.8-53.1c-376.5-27.3-566.3,56.4-586,114.2
	c-14.6,42.7,200.8,27.6,251,61c105.4,70,119.3,30.1,122.7,53.1C1774.8,2969.8,1706.8,2992.6,1682.1,3000.9z"/>
<g>
	<g>
		<path class="st22" d="M2504.6,2223.6v647.9c0,14.5,5.4,20.6,15,20.6h496.9c0.3,0,0.8-0.2,1.3-0.5v-752.5L2504.6,2223.6z"/>
		<path class="st23" d="M3104.3,2771.9V2125l-86.6,14.2v752.5c11.8-6.6,67-83,84.2-106.9C3104.7,2780.8,3105.4,2776.1,3104.3,2771.9
			z"/>
	</g>
	<g>
		<polygon class="st24" points="3017.7,2139.2 2504.6,2223.6 2504.6,2484.6 3017.7,2484.6 		"/>
		<polygon class="st25" points="3104.3,2397.4 3104.3,2125 3017.7,2139.2 3017.7,2484.6 		"/>
	</g>
	<path class="st26" d="M3016.4,2241.3h-496.9c-0.4,0-0.8,0-1.2,0c-11.9-0.8-18-14.8-11-24.4c17.9-25.1,77.4-107.4,85.5-107.4h496.9
		c0.4,0,0.8,0,1.2,0c11.9,0.8,18,14.8,11,24.4C3084,2159,3024.5,2241.3,3016.4,2241.3z"/>
	<path class="st24" d="M3090.9,2109.5c-0.4,0-0.8,0-1.2,0h-496.9c-8.1,0-67.6,82.3-85.5,107.4c-6.9,9.7-0.8,23.6,11,24.4
		c0.4,0,0.8,0,1.2,0h496.9c8.1,0,67.6-82.3,85.5-107.4C3108.8,2124.2,3102.7,2110.3,3090.9,2109.5z M3093.2,2127.7
		c-44.7,62.5-71.6,96-79.5,102.9h-494.2c-0.2,0-0.3,0-0.5,0c-2-0.1-3-1.4-3.5-2.5c-0.3-0.6-1.2-2.9,0.4-5.1
		c44.7-62.5,71.6-96,79.5-102.9h494.2c0.2,0,0.3,0,0.5,0c2,0.1,3,1.4,3.5,2.5C3093.9,2123.3,3094.8,2125.5,3093.2,2127.7z"/>
	<g>
		<g>
			<polygon class="st24" points="2971.2,2854.3 2896.9,2780 2822.6,2854.3 2822.6,2807.8 2896.9,2733.5 2971.2,2807.8 			"/>
		</g>
		<g>
			<polygon class="st24" points="2971.2,2854.3 2896.9,2780 2822.6,2854.3 2822.6,2807.8 2896.9,2733.5 2971.2,2807.8 			"/>
		</g>
		<g>
			<polygon class="st24" points="2971.2,2775.4 2896.9,2701 2822.6,2775.4 2822.6,2728.9 2896.9,2654.6 2971.2,2728.9 			"/>
		</g>
		<g>
			<polygon class="st24" points="2971.2,2696.5 2896.9,2622.1 2822.6,2696.5 2822.6,2650 2896.9,2575.6 2971.2,2650 			"/>
		</g>
		<g>
			<polygon class="st24" points="2971.2,2617.5 2896.9,2543.2 2822.6,2617.5 2822.6,2571 2896.9,2496.7 2971.2,2571 			"/>
		</g>
	</g>
	<g>
		<path class="st12" d="M3063.1,2219.7c13.8-9.3,25.2,6.5,25.5,35.4c0.3,28.8-10.6,59.8-24.3,69.1s-25.2-6.5-25.5-35.4
			C3038.4,2259.9,3049.3,2229,3063.1,2219.7z"/>
		<polygon class="st22" points="3080.9,2249.8 3068.6,2258.1 3068.3,2232.3 3058.3,2239 3058.6,2264.9 3046.2,2273.2 3046.5,2294.1 
			3058.8,2285.8 3059.1,2311.6 3069.1,2304.9 3068.8,2279 3081.2,2270.7 		"/>
	</g>
	<g>
		<path class="st12" d="M3063.8,2774.6c-13.8,9.3-25.2-6.5-25.5-35.4c-0.3-28.8,10.6-59.8,24.3-69.1c13.8-9.3,25.2,6.5,25.5,35.4
			C3088.4,2734.4,3077.6,2765.3,3063.8,2774.6z"/>
		<polygon class="st22" points="3080.4,2700.2 3045.7,2723.6 3046,2744.5 3080.6,2721.1 		"/>
	</g>
	<linearGradient id="SVGID_10_" gradientUnits="userSpaceOnUse" x1="2581.4185" y1="2103.9531" x2="2581.4185" y2="2717.281">
		<stop  offset="0" style="stop-color:#6E6E6E"/>
		<stop  offset="1" style="stop-color:#000000"/>
	</linearGradient>
	<path class="st27" d="M2527.1,2250.1v621.6c0,0,69.7-80.9,87.5-238.1c17.8-157.2,21.2-386,21.2-386L2527.1,2250.1z"/>
	<g>
		<path class="st28" d="M2889.5,2103.5v77.6c0,11,28.7,20,64.1,20s64.1-8.9,64.1-20v-77.6H2889.5z"/>
		<ellipse class="st29" cx="2953.6" cy="2103.5" rx="64.1" ry="20"/>
	</g>
	<g>
		<polygon class="st28" points="2608.7,2104 2608.7,2179.2 2642.5,2199.7 2710,2199.7 2743.8,2179.2 2743.8,2104 		"/>
		<polygon class="st29" points="2710,2083.5 2642.5,2083.5 2608.7,2104 2642.5,2124.5 2710,2124.5 2743.8,2104 		"/>
	</g>
</g>
<g>
	<path class="st30" d="M2300.5,2651.2c-61.9,0-120-7.1-163.5-20.1c-23.1-6.9-38.6-14.4-48.2-21.4v499.4c0,36.4,94.8,65.9,211.7,65.9
		s211.7-29.5,211.7-65.9v-499.4c-9.6,7-25.1,14.6-48.2,21.4C2420.5,2644,2362.4,2651.2,2300.5,2651.2z"/>
	<path class="st26" d="M2088.8,2433.9v175.8c9.6,7,25.1,14.6,48.2,21.4c43.5,12.9,101.6,20.1,163.5,20.1c61.9,0,120-7.1,163.5-20.1
		c23.1-6.9,38.6-14.4,48.2-21.4v-175.8H2088.8z"/>
	<g>
		<path class="st31" d="M2411,2433.9v731.4c60.7-11.6,101.2-32.4,101.2-56.2v-499.4v-175.8H2411z"/>
	</g>
	<ellipse class="st30" cx="2300.5" cy="2433.9" rx="211.7" ry="65.9"/>
	<path class="st32" d="M2446.7,2398.6c-38.9-12.1-90.8-18.8-146.2-18.8s-107.3,6.7-146.2,18.8c-39.6,12.3-53.7,26.7-53.7,35.2
		s14.1,22.9,53.7,35.2c38.9,12.1,90.8,18.8,146.2,18.8s107.3-6.7,146.2-18.8c39.6-12.3,53.7-26.7,53.7-35.2
		S2486.3,2410.9,2446.7,2398.6z"/>
	<g>
		<path class="st28" d="M2242.1,2403.2v30.9c0,10,26.1,18.2,58.3,18.2s58.3-8.1,58.3-18.2v-30.9H2242.1z"/>
		<ellipse class="st29" cx="2300.5" cy="2403.2" rx="58.3" ry="18.2"/>
	</g>
	<g>
		<path class="st12" d="M2241.6,2529.3c25.4-0.3,46.2,20,46.5,45.4c0.3,25.4-20,46.2-45.4,46.5s-46.2-20-46.5-45.4
			C2195.9,2550.4,2216.2,2529.6,2241.6,2529.3z"/>
		<polygon class="st30" points="2274,2565.7 2251.2,2565.9 2251,2543.2 2232.6,2543.4 2232.8,2566.2 2210.1,2566.4 2210.3,2584.8 
			2233.1,2584.6 2233.3,2607.3 2251.7,2607.1 2251.5,2584.3 2274.2,2584.1 		"/>
	</g>
	<g>
		<path class="st12" d="M2242.7,3094.5c-25.4,0.3-46.2-20-46.5-45.4c-0.3-25.4,20-46.2,45.4-46.5c25.4-0.3,46.2,20,46.5,45.4
			C2288.4,3073.4,2268.1,3094.2,2242.7,3094.5z"/>
		
			<rect x="2210.2" y="3039.4" transform="matrix(0.9999 -1.158085e-02 1.158085e-02 0.9999 -35.155 26.1704)" class="st30" width="63.9" height="18.4"/>
	</g>
	<linearGradient id="SVGID_11_" gradientUnits="userSpaceOnUse" x1="2154.6335" y1="2654.2019" x2="2142.6064" y2="3108.2297">
		<stop  offset="0" style="stop-color:#6E6E6E"/>
		<stop  offset="1" style="stop-color:#000000"/>
	</linearGradient>
	<path class="st33" d="M2100.7,2499.8v585.7c0,0,80.2-151.4,98.8-292.8s14.9-263.3,14.9-263.3L2100.7,2499.8z"/>
</g>
<g>
	<g>
		<g>
			<path class="st34" d="M1276.7,3017.2h-154c-10.1,0-18.3-8.2-18.3-18.3v-314.1H844.8v314.1c0,10.1-8.2,18.3-18.3,18.3H678.7
				c-10.1,0-18.3,8.2-18.3,18.3c0,10.1,8.2,18.3,18.3,18.3h598c10.1,0,18.3-8.2,18.3-18.3C1295,3025.3,1286.8,3017.2,1276.7,3017.2z
				"/>
			<path class="st35" d="M1104.5,2684.7v301.8c-44.5-90.4-259.6-94.6-259.6-94.6v-207.3H1104.5z"/>
			<linearGradient id="SVGID_12_" gradientUnits="userSpaceOnUse" x1="2237.5776" y1="3250.688" x2="-305.4798" y2="1575.3529">
				<stop  offset="0" style="stop-color:#171721"/>
				<stop  offset="1" style="stop-color:#29283A"/>
			</linearGradient>
			<path class="st36" d="M296,2867h1357.2c13.9,0,25.1-11.2,25.1-25.1v-846.4c0-13.9-11.2-25.1-25.1-25.1H296
				c-13.9,0-25.1,11.2-25.1,25.1v846.4C270.9,2855.7,282.2,2867,296,2867z"/>
			<linearGradient id="SVGID_13_" gradientUnits="userSpaceOnUse" x1="1664.3392" y1="2821.873" x2="309.4421" y2="2029.8241">
				<stop  offset="0" style="stop-color:#668BF4"/>
				<stop  offset="1" style="stop-color:#79DECB"/>
			</linearGradient>
			<rect x="323.3" y="2024.8" class="st37" width="1302.6" height="787.7"/>
			<linearGradient id="SVGID_14_" gradientUnits="userSpaceOnUse" x1="323.3272" y1="2384.1785" x2="1625.9678" y2="2384.1785">
				<stop  offset="0" style="stop-color:#79DDCC"/>
				<stop  offset="1" style="stop-color:#668BF4"/>
				<stop  offset="1" style="stop-color:#79DECB"/>
			</linearGradient>
			<polygon class="st38" points="1626,2026.9 1626,2542.1 323.3,2741.5 323.3,2226.3 			"/>
			<linearGradient id="SVGID_15_" gradientUnits="userSpaceOnUse" x1="1618.2009" y1="2706.2581" x2="335.0235" y2="1926.1628">
				<stop  offset="0" style="stop-color:#668BF4"/>
				<stop  offset="1" style="stop-color:#79DECB"/>
			</linearGradient>
			<polygon class="st39" points="533.2,2024.8 596.2,2070.1 573.8,2123.6 670.5,2146.7 601.8,2109.7 623.9,2062 583.3,2024.8 			"/>
			<linearGradient id="SVGID_16_" gradientUnits="userSpaceOnUse" x1="1665.7188" y1="2912.6602" x2="-1534.1268" y2="967.345">
				<stop  offset="0" style="stop-color:#668BF4"/>
				<stop  offset="1" style="stop-color:#79DECB"/>
			</linearGradient>
			<path class="st40" d="M1291.8,2812.6l-92.9-201.5l-221.2-118.6l-104.6-239.6l78,253.6l211.3,152.2l45.9,153.9
				C1208.3,2812.6,1284.6,2812.6,1291.8,2812.6z"/>
		</g>
	</g>
</g>
<g>
	<g>
		<path class="st41" d="M1347.6,1983c0,0-7.2,9.9-0.1,4.3c-0.5,122.5,107.3,247.5,241.8,280c36.6,8.9,71.4,9.9,102.8,4.3
			c-4.3,7.9,4.1-0.8,4.1-0.8c82.4-16.4,139.9-79.1,141.2-167.4c1.7-123.2-106.5-249.6-241.9-282.2
			C1461,1788.7,1350.6,1861,1347.6,1983z M1710.6,2200c-0.1,1.8-0.1,3.6-0.2,5.4c-1.2,24.5-17.5,44.3-41.6,49.9
			c-28.9,6.5-61.3,6.4-95.8-1.8c-115-27.7-206.9-135.2-205.6-239.8c0.1-0.8,0-1.5,0.1-2.4c0.8-26.2,18.6-48,44.7-53.6
			c28.1-5.9,59.6-5.6,92.9,2.6c11,2.7,21.8,6,32.3,10.1l127.5,4.1l11.7,111.3C1698.6,2121.4,1711.1,2160.9,1710.6,2200z"/>
		<path class="st41" d="M1176.6,1741.6c1-1.3,2-2.6,3.1-3.7l-73.2,85.9c-47.1,55.3-75,127.6-76.2,212.2
			c-3.3,237.6,205.3,481,466.3,543.9c168,40.6,316.5-3.8,401.9-103.8l73.2-85.9c-1,1-1.9,2-2.9,3c48.8-55.6,78-129.2,79.1-215.4
			c3.3-237.6-205.3-481-466.3-543.9C1411.5,1592.9,1261.5,1638.9,1176.6,1741.6z M2027.8,2149.3c-3.1,218.9-200.5,349.4-441,291.3
			c-240.4-57.9-432.8-282.6-429.7-501.5c3.1-218.9,200.5-349.4,441-291.3C1838.4,1705.8,2030.9,1930.4,2027.8,2149.3z"/>
	</g>
	<g>
		<path class="st42" d="M1157.1,1939.2c3.1-218.9,200.5-349.4,441-291.3c240.4,57.9,432.8,282.6,429.7,501.5
			c-3.1,218.9-200.5,349.4-441,291.3C1346.6,2382.7,1154,2158.1,1157.1,1939.2z M1837.4,2103.4c1.7-123.2-106.5-249.6-241.9-282.2
			c-135.4-32.6-246.4,40.6-248.2,163.9c-1.7,123.2,106.5,249.6,241.9,282.2C1724.6,2300,1835.7,2226.6,1837.4,2103.4"/>
	</g>
	<path class="st43" d="M1115.1,1813.5c-21.5,48.8-35.4,100.8-40.8,154.1c-5.5,53.2-1.7,108,14.8,159.9c17,51.9,44.4,102,77.4,148
		c32.7,46.2,72.3,88.2,115.9,125.3c43.4,37.5,91.8,69,143.1,94.3c51,25.2,105.8,44,160.9,52.5c55.2,8.1,111.3,5.3,164.1-7.6
		c52.9-12.8,103.6-34.1,148.1-64c-40.6,35.1-90.1,60.5-143.1,77.3c-53.3,16.4-111.5,22.9-170,16c-117.4-14.6-229.4-71.1-320.8-148.2
		c-90.8-77.8-164.5-177.4-197.6-289.2c-7.9-28-11.8-56.4-12.9-84.7c-0.8-28.2,1.4-55.9,5.8-82.9
		C1069.3,1910.7,1087.2,1859,1115.1,1813.5z"/>
	<path class="st43" d="M1205.3,1711.4c-66.6,89.2-97.4,204.1-78,316.9c9.5,56.3,31.6,111.2,61.1,162.1
		c15.1,25.4,32.1,49.7,50.4,73.3c18.7,23.3,39,45.2,60.8,65.8c43.5,41.1,92.6,77.2,145.7,105.2c52.7,28.4,109.9,49.5,167.6,60.7
		c28.8,5.5,58.1,7.6,87.1,7c29.1-0.5,57.7-4.3,85.7-10.7c28-6.4,55.1-15.1,81.4-26.1c26-11.1,51.6-24,74.7-40
		c-21.2,18.5-45.2,34-70.5,47.2c-25.5,13.4-52.4,24.2-80.5,32.6c-56.4,16.3-118,21.7-179.6,12.1c-61.5-9.4-121.1-30.7-177.1-59.1
		c-56-29-108-66-153.6-109.5c-45.5-43.6-85-93.2-115-147.3c-15-27.2-27.8-55.1-38-83.8c-10-28.8-17.2-58.5-21.2-87.9
		C1090,1910.4,1129.5,1793.6,1205.3,1711.4z"/>
</g>
</svg>
