<?xml version="1.0" encoding="utf-8"?>
<!-- Generator: Adobe Illustrator 24.3.0, SVG Export Plug-In . SVG Version: 6.00 Build 0)  -->
<svg version="1.1" xmlns="http://www.w3.org/2000/svg" xmlns:xlink="http://www.w3.org/1999/xlink" x="0px" y="0px"
	 viewBox="0 0 2525.8 1628.1" style="enable-background:new 0 0 2525.8 1628.1;" xml:space="preserve">
<style type="text/css">
	.st0{fill:#96BE8C;}
	.st1{fill:url(#SVGID_1_);}
	.st2{fill:#F68895;}
	.st3{fill:#462261;}
	.st4{fill:url(#SVGID_2_);}
	.st5{fill:url(#SVGID_3_);}
	.st6{fill:url(#SVGID_4_);}
	.st7{fill:#F17785;}
	.st8{fill:#FFFFFF;}
	.st9{fill:#4625AC;}
	.st10{fill:url(#SVGID_5_);}
	.st11{fill:url(#SVGID_6_);}
	.st12{fill:#58317A;}
	.st13{fill:#381E54;}
	.st14{fill:url(#SVGID_7_);}
	.st15{fill:#C8DDC3;}
	.st16{fill:#311649;}
	.st17{fill:#703CD5;}
	.st18{fill:#5229B7;}
	.st19{fill:#F9AADF;}
</style>
<g id="_x2014_ÎÓÈ_x5F_1">
</g>
<g id="_x2014_ÎÓÈ_x5F_2">
	<g>
		<g>
			<path class="st0" d="M2389,1487.5c0,1.4-17.9,2.8-51,4.1c-13,0.5-28.4,1-46,1.5c-6.3,0.2-12.9,0.3-19.8,0.5
				c-1.9,0-3.9,0.1-5.8,0.1c-1.2,0-2.4,0-3.6,0.1c-2.9,0.1-5.9,0.1-8.9,0.2c-4.7,0.1-9.6,0.2-14.6,0.3c-3.1,0.1-6.3,0.1-9.5,0.2
				c-7.4,0.1-15,0.3-22.8,0.5c-15.2,0.3-31.3,0.6-48.2,0.8c-23.4,0.4-48.3,0.7-74.5,1.1c-33.7,0.4-69.8,0.8-107.9,1.2
				c-151.2,1.5-335.3,2.5-537.2,2.9c-56.6,0.1-114.6,0.2-173.7,0.2c-10.3,0-20.5,0-30.7,0c-278.2-0.1-531.2-1.4-723.6-3.5
				c-56.6-0.6-108-1.3-153.2-2c-8.4-0.1-16.7-0.3-24.6-0.4c-3.6-0.1-7.2-0.1-10.7-0.2c-2.1,0-4.2-0.1-6.3-0.1
				c-9.4-0.2-18.5-0.4-27.2-0.6c-6.5-0.1-12.9-0.3-19-0.4c-5.1-0.1-10.1-0.3-14.9-0.4c-2.8-0.1-5.6-0.1-8.3-0.2
				c-13.4-0.3-25.6-0.7-36.6-1.1c-0.3,0-0.6,0-1,0c-12.6-0.4-23.5-0.8-32.7-1.3c-22.7-1.1-34.7-2.2-34.7-3.4c0-1.1,11.8-2.3,34-3.3
				c7.9-0.4,17.1-0.7,27.5-1.1c5.2-0.2,10.6-0.4,16.4-0.5c6.6-0.2,13.6-0.4,21-0.6c3.1-0.1,6.3-0.2,9.5-0.2
				c5.2-0.1,10.5-0.3,16.1-0.4c6.2-0.2,12.6-0.3,19.1-0.4c7.8-0.2,16-0.3,24.4-0.5c4.1-0.1,8.3-0.2,12.6-0.2h0.2
				c7.9-0.2,15.9-0.3,24.3-0.4c48.3-0.8,104-1.6,166-2.3c190.9-2.1,441.1-3.4,716.3-3.5c12,0,24,0,36.1,0c57.6,0,114.3,0,169.6,0.2
				c204.4,0.4,390.7,1.4,543.3,2.9c39.3,0.4,76.4,0.8,111,1.3c24.1,0.3,47,0.6,68.6,1c15.6,0.2,30.5,0.5,44.7,0.8
				c8.7,0.2,17.1,0.3,25.2,0.5c6.3,0.1,12.4,0.3,18.4,0.4h0c2.2,0.1,4.4,0.1,6.6,0.1c2.2,0.1,4.4,0.1,6.6,0.1
				c3.5,0.1,6.9,0.2,10.3,0.3c1.7,0,3.3,0.1,5,0.1c7.8,0.2,15.3,0.4,22.3,0.6c14.7,0.4,27.7,0.8,39,1.2
				C2370.4,1484.7,2389,1486.1,2389,1487.5z"/>
		</g>
	</g>
	<g>
		<g>
			<linearGradient id="SVGID_1_" gradientUnits="userSpaceOnUse" x1="1603.4027" y1="1470.0735" x2="1875.8912" y2="754.7928">
				<stop  offset="0" style="stop-color:#96BE8C"/>
				<stop  offset="0.4257" style="stop-color:#B3D0AC"/>
				<stop  offset="1" style="stop-color:#DFEBDC"/>
			</linearGradient>
			<path class="st1" d="M1410.6,1149.1c-38,45.7-65.3,100.8-67.2,158.5c-1.9,57.7,24.4,117.7,75.5,150.5
				c48.5,31.1,111.1,34.5,170,35c104.5,0.8,215.5-6.4,300.8-62.6c56.7-37.4,96.7-93.8,121.5-154.2c24.8-60.4,35.3-125,42-189.3
				c6.8-65.7,9.7-133.2-10.9-196.4s-68.2-121.9-135.5-142.9c-67.3-21.1-152.8,6-179.1,67.2c-13.6,31.6-10.9,67.1-19.5,100.1
				c-16.4,62.9-72.5,105.2-137.5,121.4C1502.7,1053.3,1453.3,1097.7,1410.6,1149.1z"/>
			<path class="st0" d="M1602.8,1147.1c85.9,45.2,194.2,44.7,279.7-1.1c-41.2-27.6-91.8-39.7-141.3-36.6
				C1691.6,1112.6,1648.5,1127.9,1602.8,1147.1z"/>
		</g>
		<g>
			<polygon class="st2" points="1645.3,899.3 1637,929.2 1685.6,935.9 1689.1,902.1 			"/>
			<path class="st3" d="M1675.9,1469.1c-7.1,7.4-17,11.4-26.6,15.1c-4,1.6-8.2,3.2-12.5,3c-4.3-0.2-8.9-2.7-10-6.9
				c-1.5-5.6,3.2-10.7,7.3-14.7c2.5-2.4,4.9-4.9,7.2-7.5c8.5-9.4,15.9-19.8,22.2-30.8c3.8-6.7,5.3-14.5,12.9-7.3
				c0.7,0.7,1.4,1.5,2.1,2.3c4.2,5.1,6.8,12.2,7.4,18.6C1686.7,1451,1683,1461.7,1675.9,1469.1z"/>
			<path class="st2" d="M1678.4,1436c-0.9,7.5-3.7,15-9.3,20c-4.2,3.7-9.8,5.9-15.5,5.8c-4.4,0-8.8-1.4-12.4-3.7
				c8.5-9.4,15.9-19.8,22.2-30.8c3.8-6.7,5.3-14.5,12.9-7.3c0.7,0.7,1.4,1.5,2.1,2.3C1678.8,1426.8,1678.9,1431.4,1678.4,1436z"/>
			<path class="st3" d="M1419.5,1448.4c-2.2,12.6-10.2,24-21.2,30.5c-11,6.4-24.1,7.8-36.8,9.1c-5.3,0.5-10.9,1-15.9-0.7
				c-5.1-1.7-9.7-6.2-9.6-11.6c0-7.1,7.4-11.7,13.6-15.1c4.1-2.2,8.1-4.6,12-7.1c13-8.2,25-17.9,35.9-28.7
				c6.8-6.7,11.2-15.5,17.8-4.4c1.5,2.5,2.6,5.3,3.4,8.3C1420.4,1435,1420.6,1442.2,1419.5,1448.4z"/>
			<path class="st2" d="M1418.7,1428.6c-1.4,5.4-3.6,10.6-6.8,15.2c-6.2,8.9-16,15.3-26.7,16.5c-8.4,0.9-17.1-1.6-23.6-6.9
				c13-8.2,25-17.9,35.9-28.7c6.8-6.7,11.2-15.5,17.8-4.4C1416.7,1422.8,1417.9,1425.6,1418.7,1428.6z"/>
			<linearGradient id="SVGID_2_" gradientUnits="userSpaceOnUse" x1="1795.6382" y1="809.7746" x2="1728.9137" y2="674.5098">
				<stop  offset="0" style="stop-color:#371A4F"/>
				<stop  offset="0.151" style="stop-color:#3D1D57"/>
				<stop  offset="0.4544" style="stop-color:#44215F"/>
				<stop  offset="1" style="stop-color:#462261"/>
			</linearGradient>
			<path class="st4" d="M1712.9,746c-11.8-11-17-27.7-13.1-42.7c3.9-15,16.7-27.8,32.6-32.7s34.6-1.6,47.5,8.2
				c11.8,9,18.5,22.8,20,36.8c1.6,14-1.7,28.1-7.2,41.2c10.3,1,18.6,7.1,23.1,15.6c4.6,8.5,4.7,18.7,1.6,27.7
				c-6.8,19.5-30,32.9-52,30.2c-3.8-20.4-10.9-41.7-20.1-60.6c-2.8-5.7-5.9-11.4-10.7-15.9C1729.9,749.4,1719.7,745.4,1712.9,746z"
				/>
			
				<linearGradient id="SVGID_3_" gradientUnits="userSpaceOnUse" x1="3314.2002" y1="1007.7817" x2="3199.6199" y2="782.9615" gradientTransform="matrix(-1 0 0 1 4934.7163 0)">
				<stop  offset="0" style="stop-color:#C5205C"/>
				<stop  offset="4.390252e-02" style="stop-color:#CC245E"/>
				<stop  offset="0.2201" style="stop-color:#E13264"/>
				<stop  offset="0.4166" style="stop-color:#EF3C69"/>
				<stop  offset="0.648" style="stop-color:#F8426B"/>
				<stop  offset="1" style="stop-color:#FB446C"/>
			</linearGradient>
			<path class="st5" d="M1705.4,832.3c-29.9,9.8-53.7,36.3-60.1,67c16.8,9.7,34.4,17.4,53.4,21.4
				C1692.7,891.6,1695.7,860.4,1705.4,832.3z"/>
			<path class="st2" d="M1775.1,830.8c-7.3,8.4-16.1,14.3-26.9,16.3c-10.9,2-22.4,0.1-32.1-5.1c4.5-11.9,7.9-24,10.2-36.3l0.2-1.2
				c0-0.2,0.1-0.3,0.1-0.5c1.6-8.7,2.7-17.5,3.2-26.4c0.1-1,0.1-2,0.2-3c0.3-5.4,0.4-10.8,0.3-16.3c6.6-7.8,14.6-13.9,23.2-19.3
				c3.2,7.9,7.5,15.2,12.9,21.6c-0.1,1.2-0.1,2.4-0.1,3.6c0,2.7,0,5.5,0,8.2c0.1,2,0.1,4,0.2,6c0.4,7.7,1.1,15.3,2.2,22.8
				c0,0.2,0.1,0.5,0.1,0.7C1770.3,811.6,1772.4,821.3,1775.1,830.8z"/>
			
				<linearGradient id="SVGID_4_" gradientUnits="userSpaceOnUse" x1="3239.3164" y1="1045.9469" x2="3124.7358" y2="821.1262" gradientTransform="matrix(-1 0 0 1 4934.7163 0)">
				<stop  offset="0" style="stop-color:#C5205C"/>
				<stop  offset="4.390252e-02" style="stop-color:#CC245E"/>
				<stop  offset="0.2201" style="stop-color:#E13264"/>
				<stop  offset="0.4166" style="stop-color:#EF3C69"/>
				<stop  offset="0.648" style="stop-color:#F8426B"/>
				<stop  offset="1" style="stop-color:#FB446C"/>
			</linearGradient>
			<path class="st6" d="M1659.9,880.5c9.9,16.5,18.7,33.6,26.5,51.2c0.9,1.9,1.7,3.8,2.5,5.8c12.4,29.2,22,59.6,28.4,90.8
				c0.9,4.6,1.8,9.2,2.6,13.8c0.4,2.5,0.9,5,1.3,7.5c16,3.1,33,3.7,50.3,1.4c5.3-0.7,10.5-1.6,15.6-2.8c0.5-0.1,1-0.2,1.5-0.4
				c11-2.6,21.5-6.4,31.4-11.1c-0.2-2.5-0.3-5.1-0.5-7.6c-0.8-13.2-1-26.5-0.6-39.7c0.1-3.6,0.2-7.2,0.4-10.9
				c0.2-4.2,0.5-8.4,0.8-12.5c2.7-37,9.7-73.6,20.8-109c-14.2-16.1-32.8-27.9-53.5-33.6c-13.5-3.7-27.8-4.8-42.5-2.9
				c-14.3,1.9-27.7,6.4-39.7,13.2C1685.8,844.4,1670.1,860.8,1659.9,880.5z"/>
			<path class="st2" d="M1787.3,823.1c-3.5,33.4-20.8,58.7-41.6,58.8c-18.8,0.1-34.9-20.5-40.6-49.1c12-6.4,25.3-10.7,39.7-12.5
				C1759.4,818.6,1773.8,819.6,1787.3,823.1z"/>
			<path class="st7" d="M1768.8,801.2c-5,2.4-10.3,4-15.7,4.9c-8.8,1.4-18,0.6-26.5-2.2c1.6-8.7,2.7-17.5,3.2-26.4
				c0.1-1,0.1-2,0.2-3c0.3-5.4,0.4-10.8,0.3-16.3c6.6-7.8,14.6-13.9,23.2-19.3c3.2,7.9,7.5,15.2,12.9,21.6c-0.1,1.2-0.1,2.4-0.1,3.6
				c0,2.7,0,5.5,0,8.2c0.1,2,0.1,4,0.2,6C1767,786,1767.7,793.6,1768.8,801.2z"/>
			<path class="st2" d="M1768,760.8c-0.6,3.5-1.3,6.9-1.6,10.4c-0.1,1.3-0.2,2.6-0.2,3.9c-0.3,0.6-0.6,1.1-1,1.7
				c-2.5,4.2-5.4,8.3-8.8,11.8c-4.1,4.4-9,8-14.6,10.2c-10.1,4-22.9,2.5-30.1-5.8c-6.6-7.6-7.1-18.9-4.8-28.7
				c1.2-4.9,2.9-9.6,4.7-14.2c1.8-4.7,3.6-9.5,5-14.4c1.4-4.9,2.1-10.1,1.8-15.2c-0.2-4.1-1.2-8.2-3.1-11.8
				c3.8,3.1,8.2,5.5,12.7,7.3c7.8,3.2,16,5.4,23.5,9.2c7.5,3.9,14.4,9.9,16.7,18.1C1769.8,749.1,1769,755.1,1768,760.8z"/>
			<path class="st2" d="M1766.1,747.6c0.1-2.2,0.1-4.4,1-6.4c0.9-2,2.8-3.7,4.9-3.6c2.8,0.1,4.7,2.8,5.7,5.3
				c1.3,3.2,2.1,6.7,1.7,10.1c-0.3,3.4-1.8,6.8-4.5,9c-2.6,2.2-6.4,3.2-9.7,2C1766.3,759.2,1765.9,752.7,1766.1,747.6z"/>
			<path class="st8" d="M1775.1,763.8c0,2.2-1.7,3.9-3.9,3.9c-2.2,0-3.9-1.7-3.9-3.9s1.7-3.9,3.9-3.9
				C1773.3,759.9,1775.1,761.6,1775.1,763.8z"/>
			<path class="st2" d="M1887.5,995.2c0,0-47.8,37-154.5,47.4l-12.5-19.4c0,0,91.2-18.9,120.3-49.5c0,0-2-29.6-14.4-60.8
				c-1-2.5-2.1-5-3.2-7.5l40.6-30.6c0,0,10.7,24.5,18.1,54.3C1887.3,950.9,1891,975.3,1887.5,995.2z"/>
			<path class="st9" d="M1560,1152.4c1.4,2.4,2.9,4.8,4.3,7.3c2,3.6,4.1,7.3,6.2,10.9c8.5,14.6,16.6,30.1,24.7,46.1
				c2.2,4,3.9,8,5.8,12c1.9,4,3.8,8,5.7,11.9c3.5,8,7.1,15.8,10.3,23.6c1.6,3.9,3.1,7.8,4.7,11.6c1.5,3.8,3.2,7.6,4.5,11.4
				c1.4,3.8,2.8,7.6,4.1,11.3c1.4,3.7,2.8,7.4,3.9,11.1c1.2,3.7,2.4,7.3,3.6,10.9c1.2,3.6,2.4,7.1,3.4,10.6c2,7,4.2,13.9,6,20.5
				c1.7,6.7,3.4,13.1,5,19.3c1.4,6.2,2.7,12.2,4,17.9c1.4,5.7,2.3,11.2,3.4,16.4c1,5.2,2,10.1,2.8,14.7c0.3,1.7,0.6,3.4,0.9,5
				c6.1,0,12.1-0.2,18.2-0.6c0.1-1.7,0.3-3.5,0.4-5.3c0.3-4.8,0.3-9.8,0.5-15.2c0.1-5.4,0.3-11.1,0.1-17.1c-0.1-6-0.2-12.3-0.5-18.8
				c-0.4-6.6-0.8-13.4-1.2-20.4c-0.5-7.1-1.3-14.4-2-21.9c-0.3-3.8-0.8-7.6-1.3-11.4c-0.5-3.9-1-7.8-1.5-11.8c-0.5-4-1.1-8-1.8-12
				c-0.7-4.1-1.4-8.2-2-12.3c-0.6-4.2-1.5-8.3-2.4-12.5c-0.9-4.2-1.7-8.5-2.6-12.8c-1.9-8.6-4.1-17.3-6.2-26.1
				c-2.5-8.8-4.9-17.8-7.7-26.7c-1.5-4.5-2.9-8.9-4.3-13.4c-0.7-2.2-1.4-4.4-2.2-6.6c-0.8-2.2-1.6-4.4-2.4-6.5
				c-3.3-8.6-6.3-17.2-9.9-25.5c-1.8-4.1-3.5-8.2-5.2-12.3c-1-2.4-2.2-4.7-3.3-7.1c-9.1,0-18.2,1.1-27,3.5
				C1584.7,1135.8,1571.3,1142.9,1560,1152.4z"/>
			<linearGradient id="SVGID_5_" gradientUnits="userSpaceOnUse" x1="1789.791" y1="995.7912" x2="1349.4614" y2="1447.7421">
				<stop  offset="0" style="stop-color:#4625AC"/>
				<stop  offset="7.143599e-02" style="stop-color:#4C28B2"/>
				<stop  offset="0.3819" style="stop-color:#6033C5"/>
				<stop  offset="0.6922" style="stop-color:#6C3AD1"/>
				<stop  offset="1" style="stop-color:#703CD5"/>
			</linearGradient>
			<path class="st10" d="M1843.3,1077.6c13,40.6-15.3,82.9-57.8,86.5c-0.1,0-0.3,0-0.4,0c-64.4,5.4-129.7-0.6-192-17.7
				c0,0-80.3,195.6-170.7,284.9l-21.7-11.1c0,0,116.2-248.2,136.9-352.8c0,0,168.4-5.1,280.5-39.8
				C1818.1,1027.7,1834.5,1050.1,1843.3,1077.6z"/>
			<g>
				<path class="st3" d="M1692.4,909.6l39.2,125.3c0.8,2.7,3.4,4.4,6.2,4.1l79.6-8c3.2-0.3,6.1,2,6.4,5.2l0,0c0.3,3.2-2,6.1-5.2,6.4
					l-82,8.3l-7.1,0.7l-186.6,19.5c-2.8,0.3-5.4-1.4-6.2-4.1l-42.1-134.4c-1.1-3.5,1.3-7.2,5-7.6l186.5-19.5
					C1689,905.2,1691.6,906.9,1692.4,909.6z"/>
				<polygon class="st8" points="1631.1,994.6 1593.2,998.6 1586.9,983.1 1624.9,979.2 				"/>
			</g>
			<path class="st7" d="M1881.9,929.2c-3.2-3.5-6.9-6.6-11-9.2c-13.1-8.3-29.6-10.9-44.6-7.1c-1-2.5-2.1-5-3.2-7.5l40.6-30.6
				C1863.8,874.9,1874.5,899.4,1881.9,929.2z"/>
			
				<linearGradient id="SVGID_6_" gradientUnits="userSpaceOnUse" x1="3214.6553" y1="1058.516" x2="3100.0752" y2="833.6959" gradientTransform="matrix(-1 0 0 1 4934.7163 0)">
				<stop  offset="0" style="stop-color:#C5205C"/>
				<stop  offset="4.390252e-02" style="stop-color:#CC245E"/>
				<stop  offset="0.2201" style="stop-color:#E13264"/>
				<stop  offset="0.4166" style="stop-color:#EF3C69"/>
				<stop  offset="0.648" style="stop-color:#F8426B"/>
				<stop  offset="1" style="stop-color:#FB446C"/>
			</linearGradient>
			<path class="st11" d="M1789.2,824.4c31.3,2.2,60.8,22.2,74.6,50.5c-13.9,13.5-29.1,25.2-46.6,33.7
				C1816,878.9,1805.4,849.3,1789.2,824.4z"/>
		</g>
	</g>
	<g>
		<g>
			<rect x="948.8" y="174" class="st12" width="35.3" height="118.6"/>
			<path class="st13" d="M984,244.5v48.2h-35.3v-35.1C961.2,255.5,973.2,251,984,244.5z"/>
			<polygon class="st12" points="995.9,1488.4 938.3,1488.4 950.1,1195.6 953,1124.5 981.1,1124.5 984,1195.6 			"/>
			<polygon class="st12" points="1239.9,1488.4 1185.8,1488.4 1076.7,1195.6 1050.2,1124.5 1078.3,1124.5 1109.9,1195.6 			"/>
			<polygon class="st12" points="883.9,1124.5 857.4,1195.6 748.3,1488.4 694.2,1488.4 824.2,1195.6 855.8,1124.5 			"/>
			<polygon class="st13" points="855.8,1124.5 883.9,1124.5 857.4,1195.6 824.2,1195.6 			"/>
			<polygon class="st13" points="981.1,1124.5 984,1195.6 950.1,1195.6 953,1124.5 			"/>
			<polygon class="st13" points="1109.9,1195.6 1076.7,1195.6 1050.2,1124.5 1078.3,1124.5 			"/>
			<g>
				<rect x="682.7" y="273.4" class="st13" width="604.5" height="895.4"/>
				<rect x="664.1" y="273.4" class="st12" width="604.5" height="895.4"/>
				<linearGradient id="SVGID_7_" gradientUnits="userSpaceOnUse" x1="691.1758" y1="721.0797" x2="1241.5979" y2="721.0797">
					<stop  offset="0" style="stop-color:#FFFFFF"/>
					<stop  offset="0.9231" style="stop-color:#E2EDDF"/>
					<stop  offset="1" style="stop-color:#DFEBDC"/>
				</linearGradient>
				<polygon class="st14" points="691.2,1142.5 691.2,299.7 1241.6,299.7 1241.6,1142.5 				"/>
			</g>
			<rect x="767.2" y="341.1" class="st15" width="392.2" height="27.1"/>
			<rect x="985" y="423.3" class="st15" width="189" height="30.2"/>
			<rect x="985" y="466.4" class="st15" width="127.6" height="30.2"/>
			<rect x="985" y="509.6" class="st15" width="162" height="30.2"/>
			<path class="st15" d="M957.9,644.8c0,60.9-49.4,110.3-110.3,110.3c-60.9,0-110.3-49.4-110.3-110.3c0-60.9,49.4-110.3,110.3-110.3
				c46.2,0,85.8,28.4,102.2,68.7C955,616,957.9,630.1,957.9,644.8z"/>
			<path class="st0" d="M949.8,603.2l-102.2,41.5V534.5C893.8,534.5,933.4,562.9,949.8,603.2z"/>
			<rect x="897.7" y="559.1" class="st15" width="74.9" height="18.7"/>
			<rect x="709.1" y="677.1" class="st0" width="74.9" height="18.7"/>
			<rect x="1021" y="644.8" class="st0" width="177.9" height="15.7"/>
			<rect x="1021" y="685" class="st15" width="177.9" height="15.7"/>
			<rect x="916.1" y="991.1" class="st15" width="177.9" height="15.7"/>
			<rect x="1021" y="706.9" class="st15" width="177.9" height="15.7"/>
			<path class="st15" d="M1173.8,967.5c-11.5-0.6-28.1-1.1-48.7-1.5c-41.1-0.9-97.9-1.4-160.7-1.4c-13.3,0-26.3,0.1-39,0.1
				c-0.2-50.4-0.8-94.5-1.6-126.4c-0.8-32.8-1.9-52.6-3-52.6c-1.2,0-2.2,19.7-3,52.6c-0.8,32.8-1.4,78.7-1.6,131l0,4.6l4.7,0
				c14.1,0,28.7,0.1,43.6,0.1c62.7,0,119.5-0.5,160.7-1.4c20.6-0.4,37.2-0.9,48.7-1.5c11.5-0.6,17.9-1.2,17.9-1.8
				C1191.7,968.7,1185.3,968.1,1173.8,967.5z"/>
			<path class="st0" d="M969.6,924.5c12.5,6.6,26.9,14.2,42.7,22.3l3.4,1.7l2.3-3.1c9.4-12.9,19.4-26.8,29.8-41.3
				c10.7-15,20.8-29.4,30.2-42.8c51.7-27.1,88-47.5,87.1-49.3c-0.9-1.8-39.2,15.7-92.1,41.9l-0.9,0.5l-0.7,0.9
				c-9.8,13.4-20.4,28-31.3,43.3c-9.6,13.4-18.7,26.4-27.2,38.6c-15.6-7.6-29.9-14.4-42.3-20.2l-2.5-1.1l-1.7,1.9
				c-22,23.9-35.3,39.5-34.3,40.4C933.1,959,947.5,946,969.6,924.5z"/>
		</g>
		<g>
			<path class="st2" d="M791.6,572.1c-0.4,9.9-1.4,19.9-2.9,29.9c-1.7,11.2-4,22.5-7,33.6c-1.4,5.2-3,10.9-5.3,17.7l-0.6,1.9
				c-0.8,2.3-1.6,4.7-2.5,7.1l-0.7,1.8c-0.9,2.4-1.8,4.8-2.8,7.2l-1.8,4.5l-1.9,4.5c-0.9,2.2-1.9,4.3-2.9,6.4
				c-0.4,0.8-0.8,1.7-1.2,2.6l0,0.1c-3.4,7.1-6.4,12.8-9.3,17.8l-1.5,2.8c-0.4,0.7-0.8,1.3-1.1,1.9l-0.5,0.9c-0.4,0.6-0.7,1.2-1,1.7
				c-0.7,1.2-1.5,2.5-2.3,3.7l-3.4,5.3l-3.4,5.1c-0.8,1.2-1.6,2.3-2.4,3.5c-0.4,0.5-0.7,1-1.1,1.5l-1.8,2.5l-1.8,2.4
				c-0.4,0.5-0.7,0.9-1.1,1.4c-0.8,1.1-1.7,2.3-2.6,3.4l-3.5,4.3c-0.5,0.9-1.1,1.7-1.8,2.5c-3.8,4.6-9.2,7.2-14.9,7.2
				c-4.3,0-8.4-1.4-12-4.2l-4.9-3.7c-8.2-6.2-16-13.1-23.2-20.5l-1.3-1.3c-1.3-1.3-2.6-2.7-3.9-4.2c-1.6-1.8-3.2-3.7-4.8-5.5
				c-1.3-1.5-2.5-3-3.6-4.5l-1.3-1.6c-0.6-0.8-1.2-1.6-1.8-2.4l-2.1-2.9c-5-6.9-9.6-14.3-13.9-22.7c-1-1.9-1.8-3.8-2.7-5.6l-0.3-0.6
				c-0.3-0.7-0.7-1.4-1-2.2l-1.1-2.7c-0.7-1.8-1.4-3.6-2.1-5.3c-0.6-1.6-1.1-3.1-1.6-4.6l-0.2-0.7c-0.5-1.7-1.1-3.4-1.5-5.1
				c-0.4-1.5-0.8-3-1.2-5c-0.4-1.6-0.7-3.2-1-4.7c-0.3-1.6-0.5-3.2-0.6-4.6c-0.3-2.7-0.6-5.6-0.6-8.5c0-2.6,0.2-5.1,0.5-7.4
				c0.3-2.2,0.8-4.4,1.4-6.5c0.7-2,1.5-3.8,2.4-5.4c2-3.4,4.6-5.8,7.8-7.1c1.8-0.7,3.7-1.1,5.8-1.1c1.4,0,2.9,0.2,4.5,0.6
				c1.7,0.4,3.4,1.1,5,1.9c1.5,0.8,3,1.7,4.9,3c1.7,1.2,3.3,2.6,4.9,4.1c1.4,1.4,3.2,3.1,4.9,4.9c0.5,0.6,1.1,1.2,1.6,1.8
				c0.3,0.3,0.5,0.6,0.8,0.9c0.8,1,1.7,2,2.5,3c0.8,1,1.6,2.1,2.4,3.2c0.8,1.1,1.7,2.2,2.5,3.4c0.5,0.6,0.9,1.3,1.4,2
				c0.4,0.5,0.7,1,1.1,1.5c0.9,1.2,1.8,2.5,2.6,3.8l1.3,2l1.3,1.9c0.9,1.3,1.8,2.7,2.7,4.1c2.2,3.3,4.3,6.7,6.6,10.4
				c1.5,2.4,3.1,4.9,4.7,7.5l1.5,2.4l1.5,2.4c0.5,0.8,1,1.6,1.6,2.5l0.7,1.1c0.3,0.5,0.6,0.9,0.9,1.3c1.1,1.6,2.2,3.4,3.3,5.1
				c0.6,0.9,1.2,1.8,1.8,2.7c0.2,0.3,0.3,0.5,0.5,0.8l0.3-0.4c0.6-0.9,1.2-1.7,1.8-2.6c0.4-0.6,0.8-1.2,1.2-1.8l1.5-2.2l1.5-2.2
				c3.2-4.9,6.3-9.9,9-14.3c0.5-0.9,1.1-1.9,1.6-2.8c0.9-1.5,1.7-2.9,2.5-4.4l2.1-3.7l1.9-3.6c0.9-1.6,1.8-3.3,2.6-5
				c0.4-0.8,0.8-1.5,1.2-2.3c0.8-1.5,1.5-3.1,2.3-4.6c0.4-0.9,0.8-1.7,1.3-2.6c2.1-4.5,4.4-9.4,6.4-14.3c3.8-9,7.3-18.2,10.4-27.5
				c2.7-8,5.2-16.5,7.4-25c1.6-6.2,3.1-12.2,4.3-17.9c3.5-0.2,7-0.2,10.5,0.2c5.1,0.6,10.3,2.1,14.9,4.5
				C791.9,558.6,791.9,565.2,791.6,572.1z"/>
			<path class="st7" d="M723.2,749.9c-3.8,4.6-9.2,7.2-14.9,7.2c-4.3,0-8.4-1.4-12-4.2l-4.9-3.7c-8.2-6.2-16-13.1-23.2-20.5
				l-1.3-1.3c-1.3-1.3-2.6-2.7-3.9-4.2c-1.6-1.8-3.2-3.7-4.8-5.5c-1.3-1.5-2.5-3-3.6-4.5l-1.3-1.6c-0.6-0.8-1.2-1.6-1.8-2.4
				l-2.1-2.9c-5-6.9-9.6-14.3-13.9-22.7c-1-1.9-1.8-3.8-2.7-5.6l-0.3-0.6c-0.3-0.7-0.7-1.4-1-2.2l-1.1-2.7c-0.7-1.8-1.4-3.6-2.1-5.3
				c-0.6-1.6-1.1-3.1-1.6-4.6l-0.2-0.7c-0.5-1.7-1.1-3.4-1.5-5.1c-0.4-1.5-0.8-3-1.2-5c-0.4-1.6-0.7-3.2-1-4.7
				c-0.3-1.6-0.5-3.2-0.6-4.6c-0.3-2.7-0.6-5.6-0.6-8.5c0-2.6,0.2-5.1,0.5-7.4c0.3-2.2,0.8-4.4,1.4-6.5c0.7-2,1.5-3.8,2.4-5.4
				c2-3.4,4.6-5.8,7.8-7.1c1.8-0.7,3.7-1.1,5.8-1.1c1.4,0,2.9,0.2,4.5,0.6c1.7,0.4,3.4,1.1,5,1.9c1.5,0.8,3,1.7,4.9,3
				c1.7,1.2,3.3,2.6,4.9,4.1c1.4,1.4,3.2,3.1,4.9,4.9c0.5,0.6,1.1,1.2,1.6,1.8c0.3,0.3,0.5,0.6,0.8,0.9c0.8,1,1.7,2,2.5,3
				c0.8,1,1.6,2.1,2.4,3.2c0.8,1.1,1.7,2.2,2.5,3.4c0.5,0.6,0.9,1.3,1.4,2c0.4,0.5,0.7,1,1.1,1.5c0.9,1.2,1.8,2.5,2.6,3.8l1.3,2
				l1.3,1.9c0.9,1.3,1.8,2.7,2.7,4.1c2.2,3.3,4.3,6.7,6.6,10.4c1.5,2.4,3.1,4.9,4.7,7.5l1.5,2.4l1.5,2.4c0.5,0.8,1,1.6,1.6,2.5
				l0.7,1.1c-7.2,12.1-13.6,25.1-12.6,38.9c0.9,12.8,8.5,24.9,19.6,31.2C712.5,747.8,717.8,749.4,723.2,749.9z"/>
			<path class="st16" d="M487.9,1425c-11.9,18.7-18,41-17.2,63.1c22.3,2,44.8,2.7,67.1,0.7c2.8-10.4-1.6-21.1-5.4-31.2
				c-3.8-10.1-7.7-20.8-5.5-31.3C514.3,1425.5,500.5,1424.6,487.9,1425z"/>
			<path class="st16" d="M625.6,1414.1c4.3,23,3.2,47.1-3.3,69.6c31.3,6.9,64.1,7.9,95.9,3.9c4-4.8,2.3-13-1.6-17.9
				c-3.9-4.9-9.9-7.6-15.9-9.4c-6-1.8-12.2-3-17.8-5.8c-12.8-6.3-20.8-21.3-18.9-35.5C653,1413.3,638,1412.2,625.6,1414.1z"/>
			<path class="st17" d="M677.3,1419c-0.9,6.3-6.1,11.1-12.4,11.5c-11.2,0.9-22.5,1.5-34,2c-2.2,0.1-4.2-0.3-6.1-1.2
				c-5.1-2.3-8.6-7.6-8-13.7c12.5-131.9,6.5-253.3-4.6-349.5c-3.7-31.9-7.9-61.1-12.2-86.9c-2,30.6-4.3,59.5-6.7,86.6
				c-16.7,189.9-40.7,297.2-57.8,353.7c-1.8,6-7.6,10-13.9,9.6c-11.1-0.7-22-1.6-32.9-2.8c-7.5-0.8-13-7.6-12-15.2
				c17.8-141.6,25.6-254.6,28.1-341.9c0.5-18.2,0.8-35.3,0.9-51.3c0.2-23.1-0.1-44-0.5-62.7c-0.1-4.1-0.2-8-0.3-11.9
				c-0.4-11.7-0.9-22.5-1.4-32.4c-0.2-3.7-0.4-7.2-0.6-10.7c-0.1-1.2-0.2-2.5-0.2-3.7c-0.4-5.4-0.7-10.4-1.1-15.2
				c0-0.6-0.1-1.1-0.1-1.7c-0.3-3-0.5-5.8-0.7-8.5c-1.2-12.7-2.4-22.6-3.3-29.7l103.3,2.2l67.2,1.4c0.5,2.7,1,5.5,1.4,8.2
				c0.1,0.6,0.2,1.3,0.3,1.9c0.9,5.1,1.7,10.3,2.5,15.4c1.8,11.3,3.5,22.5,5.1,33.6c1,7.2,2,14.3,2.9,21.4v0
				c1.1,8.3,2.1,16.5,3,24.6c0.3,2.8,0.6,5.7,0.9,8.5c0.8,7.4,1.6,14.8,2.3,22.1c1.1,11.1,2,22.1,2.9,33c1.5,19.5,2.7,38.6,3.6,57.2
				C700.3,1226.5,687.5,1350,677.3,1419z"/>
			<path class="st18" d="M625,1431.4c-5.1-2.3-8.6-7.6-8-13.7c12.5-131.9,6.5-253.3-4.6-349.5c-3.7-31.9-7.9-61.1-12.2-86.9
				l29.2-7.3C629.3,974.1,661.9,1243.1,625,1431.4z"/>
			<path class="st18" d="M686.4,983.3c-20.9-16.4-42.6-31.7-66.1-44c-35.8-18.7-76.7-30.2-116.7-26c-0.2-3.7-0.4-7.2-0.6-10.7
				c-0.1-1.2-0.2-2.5-0.2-3.7c-0.4-5.4-0.7-10.4-1.1-15.2c0-0.6-0.1-1.1-0.1-1.7c-0.3-3-0.5-5.8-0.7-8.5
				c-1.2-12.7-2.4-22.6-3.3-29.7l103.3,2.2l67.2,1.4c0.5,2.7,1,5.5,1.4,8.2c0.1,0.6,0.2,1.3,0.3,1.9c0.9,5.1,1.7,10.3,2.5,15.4
				c1.8,11.3,3.5,22.5,5.1,33.6c1,7.2,2,14.3,2.9,21.4v0c1.1,8.3,2.1,16.5,3,24.6c0.3,2.8,0.6,5.7,0.9,8.5
				C684.9,968.6,685.7,975.9,686.4,983.3z"/>
			<path class="st12" d="M542.1,492.1c3.3,12.5,6.7,25,10,37.5c2.3,8.7,5.1,18.1,12.3,23.5c6.6,5,16.3,5.4,23.4,1
				c-10.2-9.5-17.9-21.2-22.1-34.5c-2-6.2-3.3-12.8-6.6-18.4C555.7,495.5,548.6,491.5,542.1,492.1z"/>
			<path class="st3" d="M671,841.2c2.8,17.9,6.2,36.3,10.2,55.1c-14.3,1.8-28.7,3.1-43.1,4c-47,2.9-94.4,1-141-5.8
				c-0.2-7.2-0.4-15.5-0.7-24.5c-1-32.7-2.8-75.2-5.4-113.2c-1.7-24.5-3.6-47.1-5.9-63.8c-3.7-27-7.2-57.6,10.2-78.5
				c10-12.1,25.2-18.3,39.8-24.1c5.5-2.2,11.1-4.5,16.6-6.7c0.2-0.1,0.3-0.1,0.5-0.2c9.9-4,19.8-7.9,29.7-11.9
				c11.5,5.8,24.3,11.7,37.1,17.5c2.8,1.3,5.7,2.6,8.5,3.9c4.7,2.1,12.2,5.7,18.5,8.8c8.3,4,15.4,10.3,20.3,18v0l31.5,48.5
				c0,0-8.7,33.7-39.9,49.6c1.5,28.2,4.3,60.6,9,95.6c0.4,3.1,0.9,6.3,1.3,9.4C669.1,828.9,670,835,671,841.2z"/>
			<path class="st2" d="M615.8,595.1c-18.6,3.4-37.7,2.8-55.9-1.9c4.4-9.3,6.7-19.3,7.2-29.4c0-0.1,0-0.3,0-0.4
				c0.2-4.4,0-8.7-0.5-13.1c-0.6-4.8-1.6-9.6-3.1-14.3c-1.5-4.8-3.5-9.4-5.8-13.8c21.5-0.7,44.9,8.1,54.5,24.9
				c-0.7,4.2-1.1,8.4-1.2,12.7c-0.1,1.9-0.1,3.7,0,5.6c0,2.4,0.2,4.9,0.4,7.3c0.2,2.8,0.6,5.6,1.1,8.4
				C613.2,585.9,614.4,590.5,615.8,595.1z"/>
			<path class="st2" d="M627.5,592.9c-1.2,2.9-2.8,5.6-4.8,8c-7.8,9.6-20.6,14.6-33,13.7c-12.2-0.9-23.8-7.2-31.2-16.9
				c-3.2-4.2-5.5-9-6.9-14c0.2-0.1,0.3-0.1,0.5-0.2c9.9-4,19.8-7.9,29.7-11.9c11.5,5.8,24.3,11.7,37.1,17.5
				C621.9,590.4,624.7,591.6,627.5,592.9z"/>
			<path class="st12" d="M619.2,464c4.5,12.3,3.2,26.5-3.2,37.8c-1.4-9.1-2.8-17.9-4.3-27c-0.7-4.2-1.1-9.2,2-12.2
				c0.9-0.9,2.3-1.5,3.6-1.2C618.5,461.7,619.8,462.8,619.2,464z"/>
			<g>
				<path class="st2" d="M540.4,970.8c-2.4,0.9-6.1-3-11.2-10.7c-1.3-1.9-2.6-4.1-4-6.5c-1.4-2.4-2.7-5.1-4.2-8
					c-2.9-5.8-6.2-12.4-9.3-20c-1.6-3.8-3.2-7.7-4.9-11.9c-0.9-2.1-1.6-4.2-2.4-6.4c-0.8-2.2-1.6-4.4-2.4-6.7
					c-0.8-2.3-1.6-4.6-2.4-6.9c-0.4-1.2-0.8-2.4-1.2-3.6c-0.4-1.2-0.8-2.4-1.1-3.6c-1.5-4.9-3-10-4.6-15.2c-0.8-2.6-1.5-5.3-2.2-8
					c-0.7-2.7-1.4-5.4-2.1-8.2c-0.7-2.8-1.4-5.6-2.1-8.4c-0.6-2.8-1.2-5.7-1.8-8.6c-0.6-2.9-1.2-5.8-1.8-8.8c-0.3-1.5-0.6-3-0.9-4.5
					c-0.3-1.5-0.5-3-0.8-4.5c-1-6-2-12.2-2.9-18.4c-0.8-6.2-1.5-12.4-2.2-18.5c-0.2-1.5-0.3-3-0.5-4.6c-0.1-1.5-0.2-3-0.3-4.5
					c-0.2-3-0.4-6-0.6-9c-0.2-3-0.4-5.9-0.5-8.8c-0.1-2.9-0.1-5.8-0.2-8.7c0-2.9-0.1-5.7-0.1-8.5c0-2.8-0.1-5.6,0.1-8.3
					c0.1-3.6,0.2-7.2,0.4-10.7c0.1-1.8,0.2-3.5,0.3-5.3c0.1-1.3,0.2-2.6,0.2-3.8c0.1-1.3,0.2-2.5,0.3-3.8c0.2-2.5,0.5-5,0.7-7.4
					c0.3-2.4,0.5-4.8,0.8-7.1c0.3-2.3,0.5-4.6,0.9-6.8c0.7-4.5,1.5-8.7,2.3-12.8c1.5-8.1,3.7-15.4,5.8-21.7c1.1-3.2,2.1-6.1,3.2-8.7
					c1.2-2.7,2.4-5.1,3.5-7.2c4.7-8.6,9.6-12.9,14.1-12.2c4.5,0.6,8.2,6.1,10.8,15.3c0.7,2.3,1.3,4.8,1.8,7.5
					c0.6,2.7,1.2,5.7,1.6,8.8c1,6.3,1.6,13.4,2.4,21.2c0.3,3.9,0.6,8,0.8,12.2c0.1,2.1,0.3,4.3,0.4,6.5c0.1,2.2,0.3,4.4,0.4,6.7
					c0.1,2.3,0.2,4.6,0.3,6.9c0,1.2,0.1,2.3,0.1,3.5c0.1,1.2,0.1,2.4,0.2,3.6c0.3,4.8,0.5,9.8,0.6,14.8c0,2.5,0.2,5.1,0.3,7.7
					c0.1,2.6,0.2,5.2,0.3,7.9c0.1,2.7,0.2,5.3,0.2,8.1c0.1,2.7,0.3,5.4,0.4,8.2v0c0.1,2.8,0.2,5.5,0.3,8.4c0,1.4,0.1,2.8,0.1,4.2
					c0.1,1.4,0.2,2.8,0.2,4.3c0.3,5.7,0.6,11.5,0.8,17.4c0.4,5.8,0.8,11.6,1.1,17.4c0.1,1.4,0.2,2.9,0.2,4.3
					c0.1,1.4,0.2,2.8,0.3,4.2c0.2,2.8,0.4,5.6,0.6,8.4c0.2,2.8,0.4,5.5,0.5,8.3c0.2,2.7,0.5,5.4,0.7,8.1c0.2,2.7,0.4,5.3,0.6,7.9
					c0.2,2.6,0.4,5.2,0.7,7.8c0.5,5.1,1,10.1,1.4,15c0.1,1.2,0.2,2.4,0.3,3.6c0.1,1.2,0.3,2.4,0.4,3.6c0.3,2.4,0.5,4.7,0.8,7
					c0.2,2.3,0.5,4.5,0.7,6.8c0.2,2.2,0.4,4.4,0.7,6.5c0.5,4.2,1,8.3,1.4,12.3c0.8,7.9,1.7,15,2.3,21.3c0.3,3.2,0.5,6.1,0.8,8.9
					c0.2,2.7,0.4,5.2,0.5,7.5C543.5,964.4,542.8,969.9,540.4,970.8z"/>
			</g>
			<path class="st7" d="M610.9,565.4c0,2.4,0.2,4.9,0.4,7.3c-4.5-0.4-9-1.5-13.3-3.1c-9.5-3.8-17.7-10.8-22.9-19.6
				c-2.2-3.8-4-8-7.1-11c-1.3-1.2-2.8-2.2-4.5-2.9c-1.5-4.8-3.5-9.4-5.8-13.8c21.5-0.7,44.9,8.1,54.5,24.9
				c-0.7,4.2-1.1,8.4-1.2,12.7C610.9,561.7,610.9,563.6,610.9,565.4z"/>
			<path class="st2" d="M634.6,541.3c-1.2,13.5-16.4,22.6-29.8,21c-8.9-1.1-16.7-5.6-23.3-11.8c-3.5-3.2-6.6-6.8-9.2-10.6
				c-14.4-20.2-20.2-46.4-15.5-70.8c17-8.6,40.2-12.2,59-9.2c-2.7,16.1-0.5,33,6.1,47.9c0.8,1.7,1.5,3.4,2.4,5
				C628.8,521.9,635.5,531,634.6,541.3z"/>
			<path class="st12" d="M560,515c5-12.3,6.4-26.2,3.7-39.3c12.4,5.3,27.5,4.7,39.8-0.9c12.2-5.6,21.9-16.7,25.9-29.5
				c-14.1-7.6-30.3-12.2-46.3-13c-6.9-0.3-14.1,0.1-20,3.6c-7.8,4.6-12,14.7-9.7,23.5c-5.7-1.5-11.4,3-13.9,8.4
				c-2.4,5.3-1.9,11.5-0.5,17.2C542.2,497.7,549.3,507.2,560,515z"/>
			<path class="st7" d="M527.4,762.3c-1.5-2.4-3.1-4.7-4.8-7c-12-16.4-28.9-30.1-48.4-35c0.1-1.8,0.2-3.5,0.3-5.3
				c0.1-1.3,0.2-2.6,0.2-3.8c0.1-1.3,0.2-2.5,0.3-3.8c0.2-2.5,0.5-5,0.7-7.4c0.3-2.4,0.5-4.8,0.8-7.1c0.3-2.3,0.5-4.6,0.9-6.8
				c0.7-4.5,1.5-8.7,2.3-12.8c1.5-8.1,3.7-15.4,5.8-21.7c1.1-3.2,2.1-6.1,3.2-8.7c1.2-2.7,2.4-5.1,3.5-7.2
				c4.7-8.6,9.6-12.9,14.1-12.2c4.5,0.6,8.2,6.1,10.8,15.3c0.7,2.3,1.3,4.8,1.8,7.5c0.6,2.7,1.2,5.7,1.6,8.8
				c1,6.3,1.6,13.4,2.4,21.2c0.3,3.9,0.6,8,0.8,12.2c0.1,2.1,0.3,4.3,0.4,6.5c0.1,2.2,0.3,4.4,0.4,6.7c0.1,2.3,0.2,4.6,0.3,6.9
				c0,1.2,0.1,2.3,0.1,3.5c0.1,1.2,0.1,2.4,0.2,3.6c0.3,4.8,0.5,9.8,0.6,14.8c0,2.5,0.2,5.1,0.3,7.7c0.1,2.6,0.2,5.2,0.3,7.9
				c0.1,2.7,0.2,5.3,0.2,8.1C527.1,756.8,527.2,759.5,527.4,762.3z"/>
			<path class="st3" d="M495.3,614.5c0,0-27.4,29.2-24.1,97.1c0,0,28.8,19.1,72.7-4.6l-11-92.5H495.3z"/>
			<path class="st2" d="M534.5,910.6c0.5,6.5,7.2,10.6,13.2,13c3.6,1.5,9.8,4,14.7,7c2.8,1.7,1.1,6-2.1,5.4
				c-4.3-0.8-8.7-1.6-11.3-1.7c-2.6,5.3-1.7,11.6,0.1,17.3c1.8,5.6,4.3,11.1,4.9,17c0.5,5.9-1.6,12.5-6.8,15.2
				c-5.6,2.9-12.4,0.2-17.8-3.1c-11.3-7-21.4-18-22.4-31.3c-0.9-11.8,5.3-22.8,11.3-33C520.8,912,529.6,912.4,534.5,910.6z"/>
			<path class="st19" d="M817.4,523.7l-16.5,21.9c-2.6,3.4-7.4,4.1-10.8,1.5l0,0c-3.4-2.6-4.1-7.4-1.5-10.8l16.5-21.9
				c2.6-3.4,7.4-4.1,10.8-1.5v0C819.3,515.5,820,520.3,817.4,523.7z"/>
			<path class="st2" d="M767.4,553.4c-3.9-8.3-3.8-18.2,0.1-26.5c3.9-8.2,11.6-14.6,20.5-16.8c4.4-1.1,9.5-1.1,13.2,1.6
				c4.7,3.4,5.8,10,5.4,15.7c-1.2,14.7-10.5,28.4-23.7,34.8C779.4,556.9,773,556.3,767.4,553.4z"/>
			<path class="st2" d="M561,514c0.2-2.7-2.1-5.1-4.7-5.5c-2.6-0.4-5.4,1.1-6.8,3.3c-1.5,2.2-1.8,5.1-1.3,7.7c0.5,2.6,1.8,5,3.3,7.2
				c2.3,3.3,5.3,6.2,9,7.4c3.8,1.2,8.4,0.2,10.6-3.1C566.4,525.9,560.5,520.9,561,514z"/>
		</g>
	</g>
	<path class="st8" d="M594.8,530.1c0,0,11.1,2.7,24.4,3c0,0-1.2,9.8-12.2,8.5C603.4,541.1,597,537.5,594.8,530.1z"/>
	<path class="st8" d="M1746.9,771.2c0,0-14,4.2-31.1,6.4c0,0,2.6,9.6,16.6,6.7C1737,783.3,1744.9,778.9,1746.9,771.2z"/>
</g>
</svg>
