<?xml version="1.0" encoding="utf-8"?>
<!-- Generator: Adobe Illustrator 24.3.0, SVG Export Plug-In . SVG Version: 6.00 Build 0)  -->
<svg version="1.1" id="Layer_1" xmlns="http://www.w3.org/2000/svg" xmlns:xlink="http://www.w3.org/1999/xlink" x="0px" y="0px"
	 viewBox="0 0 1000 1000" style="enable-background:new 0 0 1000 1000;" xml:space="preserve">
<style type="text/css">
	.st0{fill:url(#SVGID_1_);}
	.st1{fill:url(#SVGID_2_);}
	.st2{fill:#96BE8C;}
	.st3{fill:#311E69;}
	.st4{fill:#614CD4;}
	.st5{fill:#D1E2CC;}
	.st6{fill:url(#SVGID_3_);}
	.st7{fill:url(#SVGID_4_);}
	.st8{fill:#3F2520;}
	.st9{fill:#D8E7EB;}
	.st10{fill:#A7C2C9;}
	.st11{fill:#FF8F8F;}
	.st12{fill:#D95F76;}
	.st13{fill:#B8D2D8;}
	.st14{fill:#1E1240;}
	.st15{fill:#6D3C30;}
	.st16{fill:#FFFFFF;}
	.st17{fill:#4CB4D4;}
	.st18{fill:#2567B7;}
	.st19{fill:#2E88BF;}
	.st20{fill:#FF9791;}
	.st21{clip-path:url(#SVGID_6_);}
	.st22{fill:#C3D0D4;}
	.st23{fill:#889EA3;}
	.st24{clip-path:url(#SVGID_8_);}
	.st25{fill:#9DBFC7;}
	.st26{clip-path:url(#SVGID_10_);}
	.st27{fill:#FF6161;}
	.st28{fill:#E0BCBC;}
	.st29{fill:#FFCACA;}
	.st30{fill:#DCEBF0;}
	.st31{fill:#A1BEC4;}
</style>
<g>
	<linearGradient id="SVGID_1_" gradientUnits="userSpaceOnUse" x1="141.8256" y1="596.0589" x2="141.8256" y2="489.7955">
		<stop  offset="0" style="stop-color:#C3DABD"/>
		<stop  offset="0.3865" style="stop-color:#D8E7D4"/>
	</linearGradient>
	<path class="st0" d="M235.6,572.7c2.2-4.7,3.5-9.9,3.5-15.5c0-19.7-16-35.8-35.8-35.8c-15.7,0-29,10.1-33.8,24.1
		c-4.2-14.2-14.5-35.6-38.5-32c-35.4,5.4-36.6,41.2-36.6,41.2s-41.5-6.8-50.9,10.5c-6.8,12.5,2,22.4,7.4,26.9
		c2.1,1.7,4.7,2.7,7.4,2.7H231C244.4,595,246.3,576.8,235.6,572.7z"/>
	<g>
		<linearGradient id="SVGID_2_" gradientUnits="userSpaceOnUse" x1="322.8636" y1="170.0112" x2="322.8636" y2="83.3332">
			<stop  offset="0" style="stop-color:#C3DABD"/>
			<stop  offset="0.3865" style="stop-color:#D8E7D4"/>
		</linearGradient>
		<path class="st1" d="M211.5,152.2c0,0,2.4,7.7,11.5,12.6c4.1,2.2,8.7,3.3,13.4,3.3h165.1c0,0,24.9,0.2,33.5-11.6
			s-7.8-26.7-25.3-28.1c-17.4-1.4-26.9,0-26.9,0s-3.8-13.2-19.1-21.4c-15.3-8.2-30.2-2.8-33.4,4.6c0,0-14.6-26-53.6-26.3
			C237.9,84.9,196.2,104.8,211.5,152.2z"/>
	</g>
	<g>
		<path class="st2" d="M617.7,385.4c0,0-18.3-24.1-10.3-43.5c8-19.4,13.7-20,13.7-20s-54.3-26.8-50.3-85.1
			c4-58.3,57.1-62.3,57.1-62.3s-10.9-10.3,0-24.6c10.9-14.3,45-10.3,45-10.3S646.8,88.8,699.4,58C752,27.1,925,18,968.5,80.2
			c43.4,62.3-61.7,88.5-61.7,88.5s15.4,13.1,6.3,29.7c-9.1,16.6-125.1,18.9-125.1,18.9s25.7,16.6,10.9,53.1
			c-14.9,36.6-152,56-152,56s26.3,6.3,23.4,25.1c-2.9,18.9-26.3,32.2-37.7,33.8C621.1,387,617.7,385.4,617.7,385.4z"/>
		<g>
			<polygon class="st3" points="437.6,676.9 437.6,611.5 406.1,611.5 319.9,652.8 319.9,739.5 437.6,739.5 			"/>
			<g>
				<path class="st3" d="M409.7,509c0-0.7-3.2-1.2-7.1-1.2s-7.1,0.5-7.1,1.2l-9.8,115.1c-0.2,2.7,2.2,5,4.9,4.6
					c3.2-0.5,7.5-1.5,12.2-3.4c8-3.2,10.9-7.3,11.8-9.2c0.3-0.6,0.4-1.3,0.4-2L409.7,509z"/>
				<path class="st3" d="M368.3,524.3c-3.9,0-7.1,0.5-7.1,1.2l-9.8,115.1c-0.2,2.7,2.2,5,4.9,4.6c3.2-0.5,7.5-1.5,12.2-3.4
					c8-3.2,10.9-7.3,11.8-9.2c0.3-0.6,0.4-1.3,0.4-2l-5.4-105C375.4,524.9,372.2,524.3,368.3,524.3z"/>
			</g>
		</g>
		<g>
			<path class="st2" d="M379.1,501.6c-5.9-3.7-17.3-4.8-18.3,2.8c-1.1,7.6,10.1,7,10.1,7C381.8,511.1,385.1,505.4,379.1,501.6z"/>
			<path class="st2" d="M375.5,510.6c-4.2-3.7-12.2-4.8-12.9,2.8c-0.8,7.6,7.1,7,7.1,7C377.4,520.1,379.7,514.4,375.5,510.6z"/>
			<path class="st2" d="M606.2,409.1c-14.1-5.8-38.4-8.2-49.2-1.5c-8.5-8.9-24.3-15.4-37-14.2c-16.6,1.6-27.1,4.5-34.1,9.6
				c-8.1-2.5-16.4-3.6-24-2.9c-47.2,4.4-61.1,16.2-70.5,43c-1.2,3.5-1.5,6.5-1.2,9.1c-13.8-0.2-18.5,4.4-22.6,15.5
				c-1.4,3.9-0.8,6.8,0.8,8.8c-6.5,1.7-10.9,6.8-7.9,12c4.9,8.3,20.5,6.6,20.5,6.6c6-1.5,9.1-5.1,8-9.2c8.3,2,17.4,1.3,21.9-7
				c1.8-3.4,1.6-7.5,0-11.4c7.8,1.5,14.7,1.3,14.7,1.3c29.5,7.1,81.9,10.2,98.1-19c1.4-2.4,2.1-4.9,2.4-7.4
				c14.7-0.5,28.9-4.6,35.2-15.8c0.1-0.2,0.2-0.4,0.3-0.6c8.8,2.6,20,2.2,20,2.2C614,427.4,623.9,416.3,606.2,409.1z"/>
		</g>
		<g>
			<path class="st3" d="M644,383.3c0-1.5-7-2.7-15.7-2.7c-8.7,0-15.7,1.2-15.7,2.7L590.9,639c-0.5,6.1,4.8,11.1,10.9,10.1
				c7.1-1.1,16.7-3.2,27.1-7.4c17.9-7.2,24.2-16.2,26.3-20.5c0.7-1.4,1-3,0.9-4.5L644,383.3z"/>
			<path class="st3" d="M552.2,385.4c-8.7,0-15.7,1.2-15.7,2.7l-21.7,255.7c-0.5,6.1,4.8,11.1,10.9,10.1c7.1-1.1,16.7-3.2,27.1-7.4
				c17.9-7.2,24.2-16.2,26.3-20.5c0.7-1.4,1-3,0.9-4.5l-12-233.3C567.9,386.6,560.8,385.4,552.2,385.4z"/>
			<path class="st3" d="M726.9,801.2H461.5c-19.6,0-35.5-15.9-35.5-35.5V632.7c0-19.6,15.9-35.5,35.5-35.5h160.8
				c77.4,0,140.1,62.7,140.1,140.1v28.4C762.4,785.3,746.5,801.2,726.9,801.2z"/>
			<g>
				<polygon class="st4" points="610.1,413 607.9,439.3 646.9,439.3 645.6,413 				"/>
				<polygon class="st4" points="649.2,482.7 647.8,456.4 606.4,456.4 604.2,482.7 				"/>
			</g>
			<g>
				<polygon class="st4" points="534.5,411.1 532.1,438.8 570.5,438.8 569.1,411.1 				"/>
				<polygon class="st4" points="572.9,484.6 571.4,456.9 530.6,456.9 528.2,484.6 				"/>
			</g>
		</g>
		<g>
			<polygon class="st3" points="423.8,650.4 317.3,650.4 317.3,582 284.3,582 194,625.2 194,808 456.8,716 456.8,650.4 			"/>
			<g>
				<path class="st3" d="M288,474.5c0-0.7-3.3-1.3-7.4-1.3c-4.1,0-7.4,0.6-7.4,1.3L263,595.1c-0.2,2.9,2.3,5.2,5.1,4.8
					c3.3-0.5,7.9-1.5,12.8-3.5c8.4-3.4,11.4-7.6,12.4-9.7c0.3-0.7,0.5-1.4,0.4-2.1L288,474.5z"/>
				<path class="st3" d="M244.7,490.6c-4.1,0-7.4,0.6-7.4,1.3l-10.3,120.6c-0.2,2.9,2.3,5.2,5.1,4.8c3.3-0.5,7.9-1.5,12.8-3.5
					c8.4-3.4,11.4-7.6,12.4-9.7c0.3-0.7,0.5-1.4,0.4-2.1l-5.7-110C252.1,491.2,248.8,490.6,244.7,490.6z"/>
			</g>
		</g>
		<g>
			<path class="st2" d="M260.9,451.4c-13.2-8.3-38.4-10.7-40.8,6.3c-2.4,16.9,22.4,15.5,22.4,15.5
				C266.8,472.5,274.1,459.7,260.9,451.4z"/>
			<path class="st2" d="M280.3,357.3c-27-1.5-35.8,6.3-43.2,26.4c-2.5,6.7-1.3,11.6,1.3,15.2c-11.2,2.9-18.7,11.7-13.5,20.5
				c8.3,14.2,35.3,11.3,35.3,11.3c10.3-2.5,15.6-8.8,13.8-15.7c14.3,3.4,29.9,2.2,37.5-12C321,385.4,298.3,358.3,280.3,357.3z"/>
			<path class="st2" d="M499,256.3c-28.6,2.7-46.5,7.7-58.6,16.4c-13.9-4.2-28.2-6.2-41.3-4.9c-81,7.6-104.9,27.9-121.1,73.9
				s58.9,44.2,58.9,44.2c50.7,12.2,140.6,17.6,168.5-32.6c2.3-4.2,3.7-8.5,4.1-12.8c25.3-0.9,49.7-7.9,60.4-27.1
				C585.5,285.5,535,252.9,499,256.3z"/>
		</g>
		<g>
			<path class="st5" d="M634.8,279.4c-0.2,2.7-1.3,15.5-14.9,15.5c-14.2,0-15.7-13.3-15.7-26.6c0-16,4.5-26.2,16.3-26.2
				c13.2,0,14.1,11.6,14.3,15.4h-7.9c-0.1-1.7-0.3-8.6-6.5-8.6c-6.5,0-7.9,8.4-7.9,19.5c0,10.1,1,19.8,7.6,19.8
				c5.9,0,6.6-6.6,6.8-8.8H634.8z"/>
			<path class="st5" d="M672,268c0,18.3-4.8,26.9-16.3,26.9c-10.9,0-15.9-8.4-15.9-26.9c0-18.1,5.9-25.9,16.3-25.9
				C667,242,672,250.4,672,268z M648,267.9c0,13,2.2,20.3,7.9,20.3c6,0,8-6.8,8-20.2c0-12.9-2.1-19.1-8-19.1
				C650.1,248.8,648,255.6,648,267.9z"/>
			<path class="st5" d="M676.5,294v-0.3c0-5,2.3-9,7.3-14.5c3.9-4.3,4.9-5.7,4.9-9.1c0-2.6-0.6-4.6-3.3-4.6c-2.7,0-3.6,2.1-3.7,5.6
				h-4.9c0-4.9,2.2-9.7,8.7-9.7c6.1,0,8.4,3.7,8.4,8.8c0,4-1.1,6.1-5.3,10.6c-3.3,3.5-5.5,6.5-6.1,8.8h12.3L694,294H676.5z"/>
		</g>
		<g>
			<path class="st5" d="M585,204.5c-0.1,1.7-0.8,9.7-9.3,9.7c-8.9,0-9.8-8.3-9.8-16.6c0-10,2.8-16.4,10.2-16.4
				c8.2,0,8.8,7.3,8.9,9.6H580c-0.1-1.1-0.2-5.3-4.1-5.3c-4.1,0-4.9,5.2-4.9,12.2c0,6.3,0.7,12.3,4.7,12.3c3.7,0,4.1-4.1,4.2-5.5
				H585z"/>
			<path class="st5" d="M608.3,197.4c0,11.4-3,16.8-10.2,16.8c-6.8,0-9.9-5.2-9.9-16.8c0-11.3,3.7-16.2,10.2-16.2
				C605.1,181.2,608.3,186.4,608.3,197.4z M593.2,197.3c0,8.1,1.4,12.7,4.9,12.7c3.7,0,5-4.3,5-12.6c0-8.1-1.3-11.9-5-11.9
				C594.6,185.4,593.2,189.7,593.2,197.3z"/>
			<path class="st5" d="M611.1,213.7v-0.2c0-3.1,1.5-5.6,4.5-9.1c2.4-2.7,3-3.5,3-5.7c0-1.6-0.4-2.9-2.1-2.9c-1.7,0-2.2,1.3-2.3,3.5
				h-3.1c0-3.1,1.4-6,5.4-6c3.8,0,5.2,2.3,5.2,5.5c0,2.5-0.7,3.8-3.3,6.6c-2.1,2.2-3.4,4.1-3.8,5.5h7.7l-0.4,2.7H611.1z"/>
		</g>
		<g>
			<path class="st5" d="M340.7,358c-0.2,2.4-1.2,13.7-13.2,13.7c-12.6,0-13.8-11.8-13.8-23.5c0-14.1,4-23.1,14.4-23.1
				c11.6,0,12.4,10.2,12.6,13.6h-7c-0.1-1.5-0.3-7.5-5.7-7.5c-5.8,0-7,7.4-7,17.2c0,8.9,0.9,17.4,6.7,17.4c5.2,0,5.8-5.8,6-7.7
				H340.7z"/>
			<path class="st5" d="M373.6,348c0,16.1-4.2,23.7-14.4,23.7c-9.6,0-14-7.4-14-23.7c0-16,5.2-22.9,14.3-22.9
				C369.2,325,373.6,332.4,373.6,348z M352.4,347.8c0,11.5,2,17.9,7,17.9c5.3,0,7-6,7-17.8c0-11.4-1.9-16.9-7-16.9
				C354.3,331,352.4,337,352.4,347.8z"/>
			<path class="st5" d="M377.6,370.9v-0.3c0-4.4,2.1-7.9,6.4-12.8c3.4-3.8,4.3-5,4.3-8c0-2.3-0.5-4.1-2.9-4.1
				c-2.4,0-3.1,1.9-3.2,4.9h-4.3c0-4.4,2-8.5,7.7-8.5c5.4,0,7.4,3.3,7.4,7.8c0,3.5-1,5.4-4.7,9.3c-2.9,3.1-4.8,5.8-5.4,7.8h10.9
				l-0.6,3.9H377.6z"/>
		</g>
		<g>
			<path class="st5" d="M470.8,280.4c-0.2,2-1,11.3-10.9,11.3c-10.4,0-11.5-9.8-11.5-19.5c0-11.7,3.3-19.2,11.9-19.2
				c9.6,0,10.3,8.5,10.4,11.3h-5.8c-0.1-1.3-0.2-6.3-4.8-6.3c-4.8,0-5.8,6.2-5.8,14.3c0,7.4,0.8,14.5,5.6,14.5c4.3,0,4.8-4.8,5-6.4
				H470.8z"/>
			<path class="st5" d="M498.1,272.1c0,13.4-3.5,19.7-12,19.7c-8,0-11.6-6.1-11.6-19.7c0-13.3,4.3-19,11.9-19
				C494.4,253.1,498.1,259.2,498.1,272.1z M480.4,272c0,9.5,1.6,14.8,5.8,14.8c4.4,0,5.8-5,5.8-14.8c0-9.5-1.6-14-5.8-14
				C482,258.1,480.4,263,480.4,272z"/>
			<path class="st5" d="M501.4,291.2V291c0-3.6,1.7-6.6,5.3-10.6c2.8-3.2,3.6-4.2,3.6-6.6c0-1.9-0.5-3.4-2.4-3.4
				c-2,0-2.6,1.6-2.7,4.1h-3.6c0-3.6,1.6-7.1,6.4-7.1c4.4,0,6.1,2.7,6.1,6.5c0,2.9-0.8,4.5-3.9,7.7c-2.4,2.6-4,4.8-4.5,6.4h9
				l-0.5,3.2H501.4z"/>
		</g>
		<g>
			<path class="st5" d="M752.8,154.9c-0.3,4-1.9,22.9-22,22.9c-21.1,0-23.2-19.7-23.2-39.3c0-23.7,6.7-38.8,24.1-38.8
				c19.4,0,20.8,17.2,21.1,22.7H741c-0.2-2.6-0.5-12.6-9.6-12.6c-9.7,0-11.7,12.4-11.7,28.9c0,14.9,1.5,29.2,11.2,29.2
				c8.8,0,9.7-9.8,10.1-13H752.8z"/>
			<path class="st5" d="M807.8,138.1c0,27-7.1,39.7-24.1,39.7c-16.1,0-23.5-12.4-23.5-39.8c0-26.8,8.7-38.3,24-38.3
				C800.4,99.7,807.8,112.1,807.8,138.1z M772.3,137.9c0,19.2,3.3,29.9,11.7,29.9c8.8,0,11.8-10.1,11.8-29.9
				c0-19.1-3.2-28.2-11.8-28.2C775.5,109.8,772.3,119.8,772.3,137.9z"/>
			<path class="st5" d="M814.5,176.6v-0.4c0.1-7.3,3.5-13.3,10.7-21.4c5.7-6.4,7.2-8.4,7.2-13.4c0-3.8-0.9-6.8-4.9-6.8
				c-4,0-5.2,3.2-5.4,8.2h-7.3c0.1-7.3,3.3-14.3,12.9-14.3c9,0,12.4,5.5,12.4,13.1c0,5.9-1.7,9.1-7.9,15.6c-4.9,5.2-8.1,9.7-9.1,13
				h18.2l-1,6.5H814.5z"/>
		</g>
	</g>
	<linearGradient id="SVGID_3_" gradientUnits="userSpaceOnUse" x1="124.6789" y1="356.8612" x2="124.6789" y2="296.1027">
		<stop  offset="0" style="stop-color:#C3DABD"/>
		<stop  offset="0.3865" style="stop-color:#D8E7D4"/>
	</linearGradient>
	<path class="st6" d="M63.9,361c-2,0-3.9-0.7-5.4-1.9c-3.9-3.3-10.3-10.4-5.4-19.6c6.8-12.6,37-7.7,37-7.7s0.9-26.1,26.6-30
		c25.8-3.9,29.9,31.9,29.9,31.9s9-8.4,21.5-4.8c12.5,3.6,14.7,15.9,14.7,15.9s3.2-0.8,7.2-0.6c10.9,0.5,10.4,16.8-0.5,16.8H63.9z"/>
	<linearGradient id="SVGID_4_" gradientUnits="userSpaceOnUse" x1="796.8256" y1="442.0589" x2="796.8256" y2="335.7955">
		<stop  offset="0" style="stop-color:#C3DABD"/>
		<stop  offset="0.3865" style="stop-color:#D8E7D4"/>
	</linearGradient>
	<path class="st7" d="M890.6,418.7c2.2-4.7,3.5-9.9,3.5-15.5c0-19.7-16-35.8-35.8-35.8c-15.7,0-29,10.1-33.8,24.1
		c-4.2-14.2-14.5-35.6-38.5-32c-35.4,5.4-36.6,41.2-36.6,41.2s-41.5-6.8-50.9,10.5c-6.8,12.5,2,22.4,7.4,26.9
		c2.1,1.7,4.7,2.7,7.4,2.7H886C899.4,441,901.3,422.8,890.6,418.7z"/>
</g>
<g>
	<g>
		<path class="st8" d="M926.4,706.1c0,0,12.3,12.9,19.8,8.9c7.6-4,2.6-22.4-3.6-23.1C936.5,691.2,924.8,701.8,926.4,706.1z"/>
		<g>
			<path class="st9" d="M959.2,689.7l-11.6-12.4l-17.1,27.8c-0.1,0.3-0.3,0.6-0.4,0.9c-0.4,1.4,0,4,3.4,7.7c3.4,3.6,6,4.3,7.5,4
				c0.3-0.1,0.6-0.2,1-0.3l28.8-15.2L959.2,689.7z"/>
			<path class="st10" d="M970.8,702.1c-1.3,1.2-7.5-3.4-13.9-10.2c-6.4-6.8-10.5-13.3-9.3-14.5c1.3-1.2,7.5,3.4,13.9,10.2
				C967.9,694.4,972,700.9,970.8,702.1z"/>
		</g>
		<path class="st8" d="M922.9,694.3c0,0,11.4-8.5,17.6-4.8s11.2,0.1,10.8,3.8c-0.4,3.7-7.9,1.4-10.3,3.2c-2.3,1.8-7.6,7.8-13.6,4.5
			C921.5,697.8,922.9,694.3,922.9,694.3z"/>
		<path class="st8" d="M957.9,704.4c0,0,7.8-0.6,6.7,2.2c-1,2.8-5.5,3.2-5.5,3.2s-6.5,4.8-9.7,5c-3.2,0.2-6.9,0.5-6.3-1.4
			s4.8-3.3,4.8-3.3l5.2-2.2C953.2,707.9,951.6,702.1,957.9,704.4z"/>
	</g>
	<path class="st3" d="M732,862c0.8-2,1.2-3.4,1.4-4.7c0.5-2.8,2-5.3,4.3-6.9c3.5-2.5,8.4-5.3,10.3-3.4c2.1,2.1-0.9,9.5,1,12.4
		c0.8,1.3,16.2,9.6,16.4,11.3c0.4,2.9-29.2,3.5-34.2,0.8C728.6,870.1,730.5,865.9,732,862z"/>
	<path class="st3" d="M773.6,862c0.8-2,1.2-3.4,1.4-4.7c0.5-2.8,2-5.3,4.3-6.9c3.5-2.5,8.4-5.3,10.3-3.4c2.1,2.1-0.9,9.5,1,12.4
		c0.8,1.3,16.2,9.6,16.4,11.3c0.4,2.9-29.2,3.5-34.2,0.8C770.2,870.1,772.1,865.9,773.6,862z"/>
	<path class="st8" d="M874.2,648.3l2.2-81c0,0-16.8,2.1-32.5,33.2c-10.8,21.5-4.7,58.1,5.8,73c19.2,27.5,79.4,42.2,83.8,27.2
		C937.3,687.9,889.9,666.7,874.2,648.3z"/>
	<path class="st11" d="M734.1,617.7c0.4-0.6,76.3,10.4,76.3,10.4c13,51.1,22.8,90.7,21.4,122.9c-2.3,51-24.2,82.3-40.6,104.6
		c-3.5,4.8-22.2,6.9-24,0.5c-6.6-23.5,27.8-102.3,27.8-102.3s-4.1-38.7-17.5-61.6c-4.6-7.8-0.3,26.8-4.8,66.8
		c-3.7,33-16.4,69.7-19.5,88.8c-1.2,7.5-6.4,12.5-11.9,11.9c-7.2-0.8-14.4,1.1-18.6-6c-9.1-15.5,3.6-86.3,7.1-104.7
		C732.1,737.5,697.4,672.5,734.1,617.7z"/>
	<path class="st3" d="M769.2,696.2c0,0-34.8-45.1-42.2-46.2c-2.1-0.3-4.5-0.5-6.8-0.5c-2,8.3-2.9,16.6-3.1,24.6
		c6.3,7,19.5,20.1,32.2,21.6C766.8,697.6,769.2,696.2,769.2,696.2z"/>
	<path class="st12" d="M787,624.8c4.1,26.2,12.9,78.3,18.6,90.2c7.8,16.1,6.6,52.1-6.2,77.1c-11.6,22.5-23,48.8-22,68.1
		c5.7-0.1,12-1.9,13.9-4.5c16.3-22.3,38.2-53.7,40.6-104.6c1.4-30.8-7.5-68.5-19.7-116.5l-8.1-7.4
		C799.7,626.6,793.7,625.7,787,624.8z"/>
	<path class="st12" d="M777.5,692.4c0.2,0.4,0.4,0.8,0.7,1.2c-1.1-5.7-2.3-10.6-3.6-12.6c-4.1-6.4-10.7,3.2-9.1,23
		c1.6,19.7-13.5,74.2-25.6,99.2c-7.8,16-11.7,38.7-11.5,55.4c3.8,1.4,8.4,0.8,13,1.3c5.4,0.6,10.6-4.4,11.9-11.9
		c3.1-19,15.7-55.7,19.5-88.8C777.2,719.2,772.9,684.5,777.5,692.4z"/>
	<g>
		<path class="st13" d="M843.9,600.5c15.7-31.1,32.5-33.2,32.5-33.2s2.6,33.3-0.6,59.4c-5.8,4.5-18.6,12.3-37.6,10.9
			C836.3,626.6,837.7,612.9,843.9,600.5z"/>
	</g>
	<path class="st3" d="M857.4,588.3l-16.8,20.2c-3.4,10-4,20.4-2.5,29.2c4.8,0.3,9.2,0.1,13.2-0.5
		C857.3,620.5,857.4,588.3,857.4,588.3z"/>
	<path class="st9" d="M713.5,656.1c11.7-54.4,47.1-112.7,71-131.9c15.5-12.5,39.2-3.3,53.5,4.3c11.7,6.3,35.7,23.7,38.3,37.8
		c2.3,12.5-6,20.3-12.2,27.4c-7.2,8.1-13.3,15.5-21.8,30.7c-11.4,20.4-11.7,57.5-18.6,65.3c-14.6,7.4-60.3,16.9-94.9-11.3
		c-4.7-3.8,4.4-20.5,0.8-23.7c-1.5-1.4-8.2,20-9.4,18.6C717.7,670,713.4,659.9,713.5,656.1z"/>
	<path class="st3" d="M764.8,657.5c35.7,8.5-20.5-43.7-33.2-55.2c-3.4,7.6-6.6,15.5-9.4,23.4C726.7,635.4,737.9,651.1,764.8,657.5z"
		/>
	<path class="st13" d="M876.2,566.3c-1.2-6.3-6.6-13.3-13.4-19.7c0.3,7.7-1,18.7-9.2,28.9c-14.6,18.4-58.2,32.6-62.9,60.9
		c-3.1,19.1-0.1,45.4,2.1,60.7c13.5-1,24.7-4.4,30.7-7.4c6.9-7.8,7.1-44.9,18.6-65.3c8.6-15.3,14.6-22.6,21.8-30.7
		C870.3,586.6,878.5,578.8,876.2,566.3z"/>
	<path class="st3" d="M795,548.4L770.3,595c0,0-6.9,1.7-7.5,5.9s-10.7,8.8-10.7,8.8s1.5-30.9,8.4-37.2
		C767.6,566.3,795,548.4,795,548.4z"/>
	<g>
		<path class="st14" d="M864.9,524.4c0,0,9.5-2.9,9.8-7.6c0.2-4.7-1.6-8.9-8.3-11.3c-10.1-3.5-17.4,3.3-18.4,4.5
			c-2.5,3-3.5,11.2-3.5,11.2S860,529.1,864.9,524.4z"/>
		<path class="st13" d="M848.4,537.7c0,0,3.4,2.9,1.1,7.8s-6.9,4.6-11.3,1.9c-4.5-2.7-9.9-15.2-8.1-18.7
			C831.9,525.2,845,530.9,848.4,537.7z"/>
		<path class="st15" d="M849.7,517.4L833.5,529c-1.6,2.1,5.7,16.5,11.1,16.2c1.6-0.1,2.8-2.3,3.5-5.3l3.2-16.2L849.7,517.4z"/>
		<path class="st14" d="M850.6,526.9c-2.1-2.1-4.8-5.1-4.8-5.1s-2.5,3.9-1.3,9.2c0.7,2.8,2.2,5,4,6.5L850.6,526.9z"/>
		<path class="st15" d="M856.5,514.6l-9.4,5.9c-2.9,2.2-3.6,6.3-1.5,9.3c1.7,2.4,3.1,3.5,6.2,5.5c2.6,1.6,5.6,0.4,8.1-2.7
			c3.2-3.9,5.1-8.5,6-11C867.9,516,862.9,511.2,856.5,514.6z"/>
		<path class="st16" d="M856.4,525.3c0,0,1.6,2,4.5,4c0,0-1.4,1.8-3,1.6C856.4,530.6,855.3,528,856.4,525.3z"/>
		<path class="st8" d="M855,532.9c-2.2-2.7-7.4-0.3-8.9-7.9c-0.3-1.4,0.6-3.4,1.2-4.7l-0.2,0.1c-2.9,2.2-3.6,6.3-1.5,9.3
			c1.7,2.4,3.1,3.5,6.2,5.5c1.6,1,3.3,0.9,5,0C856.3,535,855.7,533.7,855,532.9z"/>
		<path class="st15" d="M854,518c0.3-0.6,0.7-1.2,1.2-1.7c0.8-1,1.8-2.7-0.3-3.2c-3.1-0.7-7.1,4.2-4.9,6.6
			C851.5,521.6,853.2,519.6,854,518z"/>
		<g>
			<g>
				<path class="st16" d="M862.9,530.1c-0.1,0-0.2-0.1-0.4-0.2l-0.4-0.4c-0.7-0.6-0.8-1.6-0.4-2.8l0.7-2.1c0.1-0.5,0.4-1,0.8-1.5
					c0.4-0.5,1-0.9,1.5-1.2c0.6-0.3,1.3-0.2,1.6,0.1l2.5,2.1c0.4,0.4,0.6,1,0.4,1.8c-0.1,0.6-0.5,1.3-1,1.8
					C866.4,529.9,864.2,530.8,862.9,530.1z M865.4,523.1c-0.1,0-0.8,0.1-1.4,0.9c-0.3,0.3-0.5,0.7-0.6,1l-0.7,2.1
					c-0.2,0.7-0.2,1.3,0,1.5l0.4,0.4c0.6,0.5,2.4-0.1,3.9-1.9c0.4-0.4,0.6-0.9,0.7-1.4c0.1-0.3,0-0.5,0-0.5L865.4,523.1z"/>
			</g>
			<g>
				<path class="st16" d="M856,524.2c-0.2-0.1-0.4-0.2-0.6-0.4l-0.7-0.6c-1.6-1.5-1.5-4.4,0.4-6.5c1.2-1.4,2.9-1.7,3.9-0.8l3.5,3.1
					c0.5,0.4,0.7,1.1,0.7,1.7c0,0.6-0.3,1.3-0.8,1.8c-0.4,0.5-0.9,0.8-1.5,1l-2.2,0.7C857.7,524.7,856.8,524.6,856,524.2z
					 M858.1,516.8c-0.5-0.3-1.4,0-2,0.7c-1.4,1.6-1.6,3.8-0.5,4.8l0.7,0.6c0.5,0.4,1.3,0.5,2.1,0.2l2.2-0.7c0.3-0.1,0.7-0.3,0.9-0.6
					c0.3-0.3,0.5-0.8,0.5-1.2c0-0.2,0-0.5-0.2-0.7l-3.5-3.1C858.2,516.9,858.2,516.8,858.1,516.8z"/>
			</g>
			<g>
				<path class="st16" d="M863.5,523.9c-0.2-0.1-0.3-0.2-0.3-0.4c-0.1-0.9-0.9-0.9-0.9-0.9c-0.3,0-0.6-0.2-0.7-0.6
					c0-0.3,0.2-0.6,0.6-0.7c0.7,0,2,0.2,2.3,1.9c0,0.3-0.2,0.7-0.5,0.7C863.7,524,863.6,523.9,863.5,523.9z"/>
			</g>
		</g>
	</g>
	<path class="st15" d="M799.9,526.1c14.3,15.8-41,52.3-39.5,73.8c1.3,17.4,71.4,65.6,63.8,80.7c-11.6,22.9-101-44.9-102.5-77.8
		C720,566,781.8,506.1,799.9,526.1z"/>
	<path class="st8" d="M776.6,525.9c-4.2,12-14.1,38.4-22.6,47.9c-11.1,12.5-24.8,26.9-15.1,38.6c9.7,11.7,20.2,21.9,30.3,29.3
		c10,7.4,22.9,30.6,35.6,34.4c7.2,2.1,12.6,5.5,14.1,8.6c-22.6,6.1-95.8-52.3-97.1-81.9C720.5,576.4,752.1,538,776.6,525.9z"/>
	<g>
		<path class="st9" d="M770.3,586.8c14.4-19.9,43.7-51.6,33.1-63.2c-11.5-12.7-44.2,9.5-63.5,35
			C743.4,564.8,753.6,581.8,770.3,586.8z"/>
	</g>
	<path class="st17" d="M848.8,721.1c0,0-7.8-24.8-13.9-30.7c-6.1-5.9-16-5.9-16.6,0.6c-0.6,6.4-3.6,32.9-9.4,41.9
		c-5.8,9-43.5,71.2-17.7,122.9c18.8,37.6,85.4,36.6,102.3,14.1c9-12-8.6-59.4-6.8-65.7c1.8-6.4,5.3-16.8-1.7-25.6
		C878.1,769.5,857.3,746.7,848.8,721.1z"/>
	<path class="st18" d="M823.8,689.4c0,0-4.3,21.7-1.2,36.2c3.1,14.5,34.5,63.4,49.9,71.9c15.4,8.5,18.4-7.4,6.1-22.9
		c-12.4-15.5-28.1-33-31.3-46.9C844,713.8,830.7,675.4,823.8,689.4z"/>
	<path class="st15" d="M819.9,672.2c0,0,12,5.9,13.7,10.8c1.7,4.9,6.3,10.7,3.7,11.9c-1,0.5-4.8-3.9-4.8-3.9s0.3,6-1.6,6.8
		c-1.8,0.9-1.8-0.4-1.8-0.4s-1.5,3.2-4.1,0.5c-2.6-2.7-6.7-10.6-7-11c-0.3-0.4-7.2-4.5-6.6-10C812.1,671.4,816,670.7,819.9,672.2z"
		/>
	<path class="st13" d="M803.4,523.6c-2.1-2.3-4.8-3.4-8-3.6c-1.4,4.5-4.2,13.1-7.5,19.1c-4.7,8.5-3.9,13.6-12.3,16.6
		c-7.6,2.7-19.1,12.8-23.4,19.6c4.8,4.8,10.9,9.4,18.2,11.5C784.7,566.9,814,535.2,803.4,523.6z"/>
	<path class="st19" d="M886.8,804c-6.1,2.1-29.4,6.2-47.6-13c-7.3-7.7-17,6.2-9.6,29.1c7.4,22.8,22.4,30.2,11.8,43
		c-7.1,8.5-21.9,9.5-27.7,14.3c27.4,14,67.3,9.1,79.9-7.7C902.6,857.8,885,810.4,886.8,804z"/>
</g>
<g>
	<path class="st3" d="M411.7,612.2c0,0,3-11.8,13.9-13.9c10.9-2.1,22.4,6.8,22.7,16.6s1.2,28.8,4.4,34.3c3.2,5.6-3.1,13.2-13.5,3.9
		c-10.3-9.3-6.5-37.8-10.3-36.2C425.2,618.5,409.5,615.3,411.7,612.2z"/>
	<path class="st3" d="M483.3,868.7c0,0,11.2-14.7,17.6-14.5c6.4,0.2,11.6,39.7,9.6,45.5c-1.9,5.9-13.3,8.9-16.4,7.7s2.6-7,2.6-7
		L483.3,868.7z"/>
	<path class="st12" d="M409.8,745.9c0,0,56.4,31.1,45.3,51.4c-20.5,37.9-113.7-23.9-116.6-18.8c-3.8,6.8,8.9,13.5,5.2,45.3
		c-0.7,6-41.7,113.5-41.7,113.5l-15.2-8.1c0,0-0.1-122,12.1-167.8C306.8,731.7,358.1,716.5,409.8,745.9z"/>
	<g>
		<g>
			<path class="st4" d="M409.8,745.9c-21.3-12.2-42.6-16.7-60.8-15.7c-2,12.3-4,32.8-0.3,51.5c25.2,11.6,89.8,46.5,106.5,15.7
				C466.1,777,409.8,745.9,409.8,745.9z"/>
		</g>
		<path class="st3" d="M456.5,791.2c-17.2-3.8-55.2-12.7-77.4-21.4c-12.2-4.8-23.3-7.3-32.5-7.7c-1.6,12.2,0.3,24.3,0.3,24.3
			c14.8,6.8,31.2,9.4,46.5,15c14.3,5.3,31.9,11.2,47.2,7C448.2,806.4,456.9,799.9,456.5,791.2z"/>
	</g>
	<path class="st12" d="M395.4,647.5l-82.8,55.5c0,0-93.9,24.8-100.2,35.1c-12.3,20.3,87.7,13.7,114.1,5.2
		c50.1-16.3,75.8-45.3,75.2-47.9C401.2,692.9,395.4,647.5,395.4,647.5z"/>
	<path class="st3" d="M401.8,695.4c-0.3-1.2-1.6-10.8-2.9-21.2L389,662c0,0-10.5,25.9-13.2,38.8c-1.4,6.8-2,14.4-2.2,20.2
		C392.6,708.5,402.2,697,401.8,695.4z"/>
	<path class="st20" d="M423.8,758.3c0,0-37,50.8-44.1,94.4c-8.2,50.5,2.1,68.6,17.3,71.9c22.6,4.9,73-23.5,89.3-38.4
		s7.5-22.6-0.8-23.6c-6.5-0.8-40.1-1.6-65.8,16.4c0,0,63.7-65,62-91.3C479.9,758.7,423.8,758.3,423.8,758.3z"/>
	<g>
		<path class="st3" d="M419.7,879.1l5.6-3.6C423.4,876.6,421.5,877.8,419.7,879.1z"/>
		<path class="st12" d="M483.3,791.1c0.4-28.5-15.8-36.2-31.4-37.1l-23.1,12.5c0,0,5.3,12.5,18.2,22.8
			c12.9,10.3-35.3,71.6-36.8,82.5c-1.5,10.9,9.4,7.2,9.4,7.2S482.8,831.5,483.3,791.1z"/>
	</g>
	<path class="st3" d="M442.2,859.5c4.7-4.6,9.7-9.7,14.6-15.3L399,833.6C398.9,833.6,425.6,855.4,442.2,859.5z"/>
	<g>
		<path class="st4" d="M485.5,784.8c-4.2-28.9-61.8-26.5-61.8-26.5s-23.6,32.5-36.7,67.8c6.1,4.3,37.5,24.8,67,26.8
			C471,832.3,488.9,807.6,485.5,784.8z"/>
	</g>
	<g>
		<path class="st3" d="M485.5,784.8c-1.9-12.8-14.2-19.4-27.4-22.8c-2.3,12.4-5.5,27.5-8,33.6c-4.6,11.2-25.2,49.7-25.2,49.7
			s0,0.3,0.1,0.8c9.2,3.5,19.2,6.2,29,6.8C471,832.3,488.9,807.6,485.5,784.8z"/>
	</g>
	<path class="st4" d="M397.8,733.6c2.4-33.4-15-30.2-17.2-46.6c-0.9-6.3,3.1-19.7,5.5-25.9c2.9-7.2,9.9-19.2,26.3-20.6
		c26-2.2,51.8,11.6,62.2,35.4c14,32.3,12.2,65,7.2,101.2C479.7,793.8,394,786.2,397.8,733.6z"/>
	<path class="st3" d="M424.9,776.4c0,0,23.3,27.6,60.9,14.7c0-2.1-0.1-4.2-0.3-6.4c-1.1-7.5-5.9-12.9-12.3-16.8
		c-6.2-1.1-11-1.6-11-1.6L424.9,776.4z"/>
	<path class="st9" d="M397.8,733.6c2.4-33.4-15-30.2-17.2-46.6c-0.9-6.3,3.1-19.7,5.5-25.9c2.9-7.2,9.9-19.2,26.3-20.6
		c26-2.2,51.8,11.6,62.2,35.4c14,32.3,12.2,65,7.2,101.2C479.7,793.8,394,786.2,397.8,733.6z"/>
	<g>
		<path class="st13" d="M477.6,683.8l-64.4,43.7c0,0,24.9,2.5,36.2-0.8c0,0,5.5,32.7-5.7,56.4c19.1,4.2,37.1,1.7,38-5.7
			C486.4,743.9,488.3,713.5,477.6,683.8z"/>
	</g>
	<path class="st3" d="M461.8,680.5c0,0,9.6,19.8-6,48.4c-9.2,16.7-34.1,23.8-34.1,23.8L461.8,680.5z"/>
	<path class="st12" d="M485.4,862.6c-0.3-0.1-0.8-0.1-1.2-0.1c-0.5,3.7-9.2,4.2-16.1,6.8c-7.3,2.9-50.5,19.4-50.5,19.4
		c-5.2,2.9,1.7,16.4-2,21.5c-4.6,6.4-17.4,10.6-24.1,12.4c1.7,0.9,3.6,1.5,5.5,1.9c4.2,0.9,9.4,0.6,15.1-0.5l0,0
		c0.8-0.1,1.4-0.3,2.2-0.5c0.2-0.1,0.4-0.1,0.6-0.1c0.8-0.2,1.7-0.4,2.6-0.6c0.3-0.1,0.7-0.2,1-0.3c0.8-0.2,1.5-0.4,2.3-0.6
		c0.2-0.1,0.4-0.1,0.7-0.2l0,0c23.9-7.3,53.2-25,64.9-35.7C502.6,871.3,493.7,863.6,485.4,862.6z"/>
	<g>
		<path class="st3" d="M402.9,597.6c0,0-9.8-2.9-14.8,11.1c-6.7,19.1,24.1,30.9,30.8,28C434.6,629.6,427.4,586.7,402.9,597.6z"/>
		<path class="st20" d="M417.9,626.4l9.2,20.4c1.5,3.4-2.5,11.1-9.6,9.2c-2.1-0.5-2.7-1.6-2.7-5.7l-3.7-19.4L417.9,626.4z"/>
		<path class="st3" d="M413.2,642.4c3.8-3.3,5.3-11.8,5.3-11.8l-7,3.1L413.2,642.4z"/>
		<path class="st20" d="M412.2,613.3l4.7,7.3c3.7,5.8,2.4,13.7-3.4,17.6c-5.3,3.6-12.3,2.7-16.3-4.2c-3.6-6.1-1.4-13.7-1-17.3
			C397,608.3,406.2,605.2,412.2,613.3z"/>
		<path class="st20" d="M416.6,621.5c0.2-0.8,0.3-1.5,0.3-2.3c0.1-1.4,0.5-3.6,2.6-2.5c3.1,1.6,2.4,9.4-1.2,9.8
			C415.6,626.9,416.1,623.3,416.6,621.5z"/>
		<path class="st12" d="M411.7,635.9c-2.3,1.1-6.9,2-9.3,1.3c-2.1-0.6-4.8-3.1-5.4-3.6c0.1,0.1,0.1,0.2,0.2,0.3
			c4,6.9,11,7.8,16.3,4.2c3.6-2.3,5.4-6.3,5.4-10.3C417,632.3,413.8,634.9,411.7,635.9z"/>
		<path class="st16" d="M407.8,626.1c0,0-7.1,2-9.8,1.8c0,0,0.1,2.9,2.9,3.6C402.8,632.1,407.6,629.7,407.8,626.1z"/>
	</g>
	<g>
		<path class="st3" d="M202.9,745.8c0,0,9.4-9.7,16.7,0S264.7,869.1,266,897c2.2,47.9-36.7,65-109.8,61.9
			c-73.1-3.1-39.5-120.2-20.3-140.9C154.9,797.4,194,750.1,202.9,745.8z"/>
		<g>
			<g>
				<defs>
					<path id="SVGID_5_" d="M157.4,728c13.7-5,43.4,15.1,54.5,20.2s-0.3,53.5-39.3,74.4c-31.7,17.1-39.3,7.2-36.1-3.2
						c0.7-2.3-22.2-13.6-20.5-15.7c4.4-5.7,24.7-17.4,32.8-34.6C156.7,752.3,152.6,729.8,157.4,728z"/>
				</defs>
				<clipPath id="SVGID_6_">
					<use xlink:href="#SVGID_5_"  style="overflow:visible;"/>
				</clipPath>
				<g class="st21">
					<g>
						<path class="st22" d="M181.8,766.1L181.8,766.1c0.3-1,0.3-2.2,0.1-3.2l-3.6-18.5l-1.3-3.4l3.5-1.4l3.5-1.4l1.3,3.4l9.8,16
							c0.5,1,1.3,1.8,2.2,2.4l0,0c1.2,0.8,2.1,1.9,2.6,3.3l9.7,28.5c0.2,0.6,0.7,1.1,1.2,1.4l0,0c0.5,0.3,1,0.7,1.2,1.3l1.8,4.7
							c0.5,1.2-0.1,2.6-1.4,3l-6.8,2.7l-6.8,2.7c-1.2,0.5-2.6-0.1-3-1.4l-1.8-4.7c-0.2-0.5-0.2-1.2,0.1-1.8l0,0
							c0.3-0.6,0.3-1.3,0-1.8l-12-27.5C181.5,769,181.4,767.5,181.8,766.1z"/>
					</g>
					<g>
						<path class="st23" d="M195.9,806.1l-1.8-4.7c-0.2-0.5-0.2-1.2,0.1-1.8c0.3-0.6,0.3-1.3,0-1.8l-12-27.5
							c-0.5-1.3-0.7-2.8-0.3-4.2c0.3-1,0.3-2.2,0.1-3.2l-3.6-18.5l-1.3-3.4l3.5-1.4l0.3-0.1c1.4,2.9,3.4,7.4,3.9,11.1
							c1,6,0.8,12.9,4.4,18.9c3.6,6,5.1,15,10.1,24.3c2.5,4.5,4,8.6,4.9,11.6l-5.2,2.1C197.7,807.9,196.4,807.4,195.9,806.1z"/>
					</g>
				</g>
			</g>
			<g>
				<defs>
					<path id="SVGID_7_" d="M157.4,728c13.7-5,43.4,15.1,54.5,20.2s-0.3,53.5-39.3,74.4c-31.7,17.1-39.3,7.2-36.1-3.2
						c0.7-2.3-22.2-13.6-20.5-15.7c4.4-5.7,24.7-17.4,32.8-34.6C156.7,752.3,152.6,729.8,157.4,728z"/>
				</defs>
				<clipPath id="SVGID_8_">
					<use xlink:href="#SVGID_7_"  style="overflow:visible;"/>
				</clipPath>
				<g class="st24">
					<g>
						<path class="st13" d="M168.3,805L168.3,805c-1-0.5-2-1.4-2.7-2.3c-2.9-3.6-9-13.1-3.7-22.9c0.5-0.9,0.4-1.9-0.2-2.7l-1-1.3
							l5.8-4.4l1,1.3c0.6,0.8,1.6,1.2,2.5,1c10.9-2.3,18.3,6.2,21,10c0.7,1,1.2,2.1,1.4,3.3l0,0c0.3,1.2,0.8,2.4,1.6,3.4l11.7,15.5
							c0.5,0.8,1.3,1.4,2.2,1.7l0,0c0.9,0.3,1.6,1,2.2,1.7l5.8,7.8c2.5,3.4,1.8,8.1-1.5,10.6l-13.2,9.9c-3.4,2.5-8.1,1.8-10.6-1.5
							l-5.8-7.8c-0.5-0.8-0.9-1.6-1-2.6l0,0c-0.1-1-0.5-1.8-1-2.6L171,807.6C170.4,806.5,169.4,805.6,168.3,805z"/>
						<path class="st25" d="M161.8,779.8c0.5-0.9,0.4-1.9-0.2-2.7l-1-1.3l5.8-4.4l1,1.3c0.5,0.6,1.2,1,1.9,1
							c-0.4,0.7-1.1,1.6-2.3,3.1c-2.9,3.4-5.9,8-5.8,9.9s7.9,13.3,9,13.5c4.4,0.8,13.5-10.6,15-8.3c1.4,2.3-11.3,9.8-10.3,12.4
							c1,2.5,11.6,16.6,11.9,17.4c0.3,0.9-2.1,2.7-1.9,3.6c0.1,1,0.3,2.2,1.1,2.3c0.7,0.1,6.1-2.7,7-1.6c0.9,1.2,5.7,7.9,7.9,7.5
							c2.3-0.4,11.4-6.7,13.5-9.5c1.4-1.8,1.4-4.9,2.2-5.8c1.6,3.2,0.7,7.1-2.3,9.4l-13.2,9.9c-3.4,2.5-8.1,1.8-10.6-1.5l-5.8-7.8
							c-0.5-0.8-0.9-1.6-1-2.6l0,0c-0.1-1-0.5-1.8-1-2.6L171,807.4c-0.8-1-1.7-1.8-2.9-2.5l0,0c-1-0.5-2-1.4-2.7-2.3
							C162.7,799.1,156.6,789.6,161.8,779.8z"/>
					</g>
				</g>
			</g>
			<g>
				<defs>
					<path id="SVGID_9_" d="M157.4,728c13.7-5,43.4,15.1,54.5,20.2s-0.3,53.5-39.3,74.4c-31.7,17.1-39.3,7.2-36.1-3.2
						c0.7-2.3-22.2-13.6-20.5-15.7c4.4-5.7,24.7-17.4,32.8-34.6C156.7,752.3,152.6,729.8,157.4,728z"/>
				</defs>
				<clipPath id="SVGID_10_">
					<use xlink:href="#SVGID_9_"  style="overflow:visible;"/>
				</clipPath>
				<g class="st26">
					<g>
						<g>
							<path class="st16" d="M148.4,804.7c0.1-0.1,0.2-0.2,0.3-0.3c0.2-0.5,0-1.1-0.5-1.3l-18.5-8.8c-0.3-0.2-0.8-0.1-1.1,0.2
								l-8.5,8.3c-0.4,0.4-0.4,1,0,1.4c0.4,0.4,1,0.4,1.4,0l8-7.8l17.9,8.5C147.7,805,148.1,805,148.4,804.7z"/>
						</g>
						<g>
							<g>
								<g>
									<path class="st27" d="M157.7,795.1l25.3,34.5c0.8,1-1.1,4-6.5,8.8s-8.7,6.4-9.5,5.4l-31.1-29.5L157.7,795.1z"/>
									<path class="st16" d="M172.7,815.4c-1.2,2.8-4,6.4-7.7,9.8c-3.7,3.4-7.5,5.8-10.4,6.8l-9.4-8.9c2.9-0.5,7.4-3.1,11.8-7.2
										c4.2-3.8,7.2-7.9,8.1-10.9L172.7,815.4z"/>
									<g>
										<path class="st28" d="M143,808c0.3,0.4,0.7,0.8,0.9,1.4c1.8,4.1-0.8,4.7,2.7,5.5c3.5,0.9,4.4-1.7,7.1,2.1
											c1.4,2.1,2.7,5,3.6,7.2c0.8,2,2.5,3.5,4.6,4.1c1.7,0.5,3.8,1.2,5.7,2.1c2.7,1.3,5.4,6.2,7.5,9.2c-4.6,3.8-7.4,5.1-8.1,4.2
											l-31.1-29.5L143,808z"/>
									</g>
									<path class="st29" d="M156.1,792l2.9,3.3c0.7,0.8-4,5.9-10.3,11.5c-6.4,5.6-12,9.5-12.7,8.8l-2.9-3.3L156.1,792z"/>
									<path class="st16" d="M133.1,812.3c0.7,0.8,6.4-3.1,12.7-8.8c6.4-5.6,10.9-10.7,10.3-11.5c-0.7-0.8-6.4,3.1-12.7,8.8
										C137,806.4,132.4,811.5,133.1,812.3z"/>
								</g>
							</g>
						</g>
					</g>
				</g>
			</g>
		</g>
		<path class="st14" d="M123.5,887.8c11.4,11.6,18.7-3.1,32.3,6.8s5.7,28.7,39.7,21.1c34-7.5,37.3-25.9,51-37.2
			c5.1-4.2,9.4-10,13-14.2c3.6,14.1,6.1,25.9,6.4,32.6c2.2,47.9-36.7,65-109.8,61.9c-49.1-2.1-50.1-55.7-39.6-96.8
			C116.7,871.9,118.3,882.5,123.5,887.8z"/>
	</g>
	<path class="st12" d="M221.5,734.3c0,0-12.5-2.9-16.8,0.5c-4.3,3.4-0.4,8.2-4.7,11.6c-4.3,3.4,1.3,6.8,4,4.3c2.7-2.4,4.7-8,8.7-7.1
		C216.8,744.5,223.7,740.4,221.5,734.3z"/>
	<g>
		<g>
			<g>
				<path class="st30" d="M282.3,857.2c0,0-10.3,5.2-21.9,0.1c-11.6-5.1-7.8-19.8-20.8-15.6c-13,4.2-15.1,52.3-11.3,72.2
					c3.8,19.9,51.4,28.4,51.4,28.4s20.4,6,24.1-8.8c3.6-14.7,33.5-87.5,0.9-97.9C272.1,825.3,282.3,857.2,282.3,857.2z M249.5,857.1
					c-4.1-0.6-14.5-1-14.5-1c-1.2-5.7,6-10.5,10.5-9.6S253.6,857.7,249.5,857.1z M303.1,838.3c7.4,2.5,10.7,21.5,8.8,24.1
					c-2,2.5-23.2-4.4-23.2-4.4C286.5,835.2,295.7,835.8,303.1,838.3z"/>
			</g>
		</g>
		<g>
			<g>
				<path class="st31" d="M282.3,857.2c0,0,5.1,9.6,6.4,14.9s6,21.5-1,45.3c-4.2,14.2-13.8,19.7-20.9,22c7.4,2.1,12.9,3.1,12.9,3.1
					s20.4,6,24.1-8.8c3.6-14.7,33.5-87.5,0.9-97.9C272.1,825.3,282.3,857.2,282.3,857.2z M303.1,838.3c7.4,2.5,10.7,21.5,8.8,24.1
					c-2,2.5-23.2-4.4-23.2-4.4C286.5,835.2,295.7,835.8,303.1,838.3z"/>
			</g>
		</g>
	</g>
	<g>
		<path class="st20" d="M420.9,672.2l-42.1,91.6c0,0-79.7,66.6-70.4,77.4c9.3,10.7,87.1-42.6,107.2-63.1
			c20.1-20.5,51.9-85.8,47.5-101.8C458.7,660.3,432.1,648,420.9,672.2z"/>
		<g>
			<path class="st12" d="M422.8,727.8c-14.2,11.9-21.3,34.2-31,50c-9.8,15.7-31.6,19.3-45.1,26.7c-7.8,4.2-31.3,33.7-33.9,38.8
				c16.6,2.7,84.9-46.6,103.1-65.1c19.3-19.6,49.3-80.4,47.8-99.5C458,694.4,435.5,717.1,422.8,727.8z"/>
		</g>
		<path class="st20" d="M315.7,832.1c0,0-2.6-6.6-10.5-7.7c-4.3-0.5-12.2,3.3-10.5,6.2c3.4,5.9,8.4-1.7,9.7-0.5
			c1.3,1.2-2.9,3.8-4.9,5.4s-17,4-1.2,13.5c11.9,7.2,20-4.2,21.1-7C320.4,839.2,315.7,832.1,315.7,832.1z"/>
	</g>
</g>
</svg>
